<?xml version="1.0" standalone="no"?>
<!DOCTYPE svg PUBLIC "-//W3C//DTD SVG 20010904//EN"
 "http://www.w3.org/TR/2001/REC-SVG-20010904/DTD/svg10.dtd">
<svg version="1.0" xmlns="http://www.w3.org/2000/svg"
 width="500.000000pt" height="500.000000pt" viewBox="0 0 500.000000 500.000000"
 preserveAspectRatio="xMidYMid meet">
<metadata>
Created by potrace 1.11, written by Peter Selinger 2001-2013
</metadata>
<g transform="translate(0.000000,500.000000) scale(0.100000,-0.100000)"
fill="#000000" stroke="none">
<path d="M2300 4315 c-158 -20 -353 -73 -498 -135 -58 -25 -61 -50 -6 -50 27
0 35 -5 40 -24 7 -31 -1 -46 -27 -46 -31 0 -59 -19 -59 -40 0 -17 2 -18 28 -4
15 7 35 14 45 14 12 0 20 10 24 31 4 23 10 29 24 26 11 -3 25 5 39 23 14 18
29 27 41 25 10 -2 19 2 19 8 0 7 4 6 10 -3 8 -12 10 -10 10 9 0 25 37 74 61
80 7 2 36 6 62 9 45 4 47 6 32 22 -15 16 -13 17 25 16 22 0 40 -5 40 -10 0 -5
3 -6 7 -2 4 3 13 -6 20 -21 9 -20 11 -22 7 -5 -3 13 -1 22 6 22 20 0 50 -20
50 -34 0 -8 8 -13 18 -12 9 2 17 9 17 17 0 8 8 13 17 13 10 -1 14 4 11 12 -6
16 -23 19 -23 3 0 -5 -5 -7 -11 -3 -16 10 7 29 37 29 17 1 23 -3 19 -13 -4
-12 -2 -12 8 -4 18 15 107 11 107 -4 0 -7 -6 -15 -12 -17 -10 -4 -10 -6 0 -6
22 -2 25 27 6 58 -21 36 -28 36 -194 16z"/>
<path d="M2495 4320 c-3 -5 4 -11 17 -12 13 -1 30 -2 39 -3 23 -1 49 -24 49
-44 0 -14 -2 -14 -10 -1 -5 8 -10 11 -10 7 0 -5 9 -20 20 -34 11 -14 20 -22
20 -17 0 5 4 3 9 -5 13 -20 54 -7 66 21 6 14 20 24 37 26 23 3 30 -3 50 -40
12 -24 21 -46 21 -49 -1 -3 5 -6 13 -6 8 0 14 10 14 22 0 36 23 59 53 51 15
-3 27 -13 27 -21 0 -7 10 -21 21 -29 14 -9 19 -21 15 -31 -3 -9 -2 -13 4 -10
6 3 13 0 16 -9 3 -8 12 -12 19 -10 18 7 57 -14 50 -26 -3 -6 1 -7 9 -4 9 4 16
1 16 -6 0 -7 7 -10 16 -6 9 4 13 2 8 -5 -4 -7 0 -9 13 -5 27 9 58 -34 40 -55
-9 -10 -7 -10 6 1 15 11 23 11 38 2 14 -9 19 -9 19 -1 0 9 4 8 14 0 10 -9 17
-6 29 13 24 35 61 41 113 16 74 -36 101 -90 53 -105 -13 -5 -31 3 -55 24 -19
17 -39 31 -44 31 -20 0 -9 -21 30 -56 22 -20 40 -42 40 -49 0 -17 39 -14 49 4
7 11 17 8 50 -18 38 -30 41 -31 69 -17 25 13 32 13 70 -4 45 -20 82 -69 82
-109 0 -33 -70 -101 -105 -101 -29 0 -85 29 -85 44 0 5 -11 -1 -24 -13 -13
-12 -32 -21 -41 -19 -10 2 -20 -2 -22 -9 -6 -16 41 -27 64 -15 13 8 24 5 41
-8 25 -21 113 -22 120 -2 2 7 9 12 16 12 7 0 18 11 24 24 10 22 14 23 36 13
13 -6 22 -15 20 -19 -3 -4 7 -15 22 -24 20 -14 30 -15 44 -6 13 8 23 7 39 -4
21 -15 30 -54 12 -54 -5 0 -49 -31 -98 -70 -61 -48 -94 -68 -106 -64 -16 5
-17 3 -8 -15 15 -28 32 -26 61 4 13 14 27 25 32 25 5 0 35 19 68 41 l58 42 32
-37 c18 -20 36 -36 41 -36 12 0 48 -35 72 -70 9 -13 17 -41 17 -61 0 -48 -45
-89 -96 -89 -29 0 -36 -5 -55 -41 -16 -32 -25 -40 -40 -36 -15 4 -19 1 -17
-11 2 -11 14 -17 31 -18 23 -1 26 2 21 19 -4 12 -2 17 4 13 6 -3 12 4 14 16 2
14 9 22 18 20 47 -11 66 -6 96 25 34 34 44 32 58 -14 4 -13 12 -23 17 -23 5 0
9 -7 9 -16 0 -9 11 -27 25 -40 48 -44 37 -56 -97 -99 -121 -39 -141 -49 -145
-72 -2 -9 4 -10 21 -3 13 5 27 6 30 3 3 -4 6 -1 6 6 0 7 5 9 10 6 6 -4 16 -2
23 4 7 5 26 12 42 15 17 3 46 10 65 16 19 5 42 10 51 10 18 0 45 -53 35 -68
-3 -5 3 -12 13 -15 20 -5 37 -67 43 -152 3 -39 2 -40 -30 -43 -29 -3 -33 0
-38 27 -5 25 -10 30 -28 26 -11 -2 -57 -11 -102 -19 -45 -8 -87 -16 -94 -18
-7 -2 -16 9 -20 24 -7 22 -5 26 10 23 12 -2 17 2 15 13 -2 9 -4 19 -4 22 -1 3
-5 -2 -11 -10 -5 -8 -12 -12 -15 -8 -3 3 1 13 10 21 16 17 21 42 6 33 -5 -3
-12 1 -15 9 -4 11 0 15 11 13 10 -2 17 5 18 20 1 20 0 21 -15 7 -9 -8 -19 -12
-23 -9 -3 4 -21 7 -39 8 -28 1 -33 6 -39 35 -4 19 -11 36 -17 40 -18 12 -19
36 -3 56 9 11 12 17 7 13 -5 -4 -16 -2 -24 5 -13 10 -14 9 -7 -2 6 -11 3 -13
-12 -9 -15 4 -24 -1 -31 -18 -8 -17 -8 -24 1 -27 7 -2 9 -8 5 -12 -4 -4 -14
-3 -21 3 -9 8 -17 8 -23 2 -7 -7 -10 2 -11 24 -1 28 2 33 18 29 11 -3 19 0 19
6 0 7 -4 10 -9 7 -5 -3 -14 1 -20 8 -9 10 -9 16 -1 21 6 4 14 4 17 1 3 -3 14
-1 24 5 15 7 21 6 25 -6 7 -17 34 -21 34 -5 0 6 -7 10 -15 10 -19 0 -19 14 0
30 11 9 13 16 5 24 -15 15 -12 30 4 17 10 -8 16 -8 25 2 8 11 7 14 -7 15 -24
1 -62 -19 -56 -29 3 -5 -2 -6 -11 -2 -9 3 -13 9 -8 12 5 3 8 21 8 38 -1 28 8
38 11 12 1 -5 2 -11 3 -14 0 -3 10 3 20 12 11 9 18 20 16 23 -2 4 11 13 30 20
31 12 52 36 41 47 -2 3 -18 -3 -35 -11 -16 -9 -36 -16 -44 -16 -10 0 -13 -8
-9 -26 4 -24 3 -25 -17 -12 -18 11 -23 11 -31 -2 -10 -15 -7 -81 4 -99 3 -5 0
-12 -6 -14 -10 -4 -10 -6 0 -6 7 -1 11 -5 7 -11 -3 -5 -15 0 -26 11 -16 16
-17 23 -8 40 12 24 4 73 -12 64 -5 -4 -9 -12 -8 -18 4 -34 -4 -38 -15 -8 -9
26 -19 35 -39 37 -16 1 -27 -2 -27 -9 -1 -7 -6 -2 -13 10 -13 23 -29 20 -40
-9 -5 -14 -10 -15 -36 -5 -17 6 -31 17 -31 23 0 15 -28 26 -42 17 -7 -3 -8 -1
-4 5 5 9 -21 32 -37 32 -3 0 -12 -17 -20 -39 -15 -38 -22 -40 -69 -32 -21 3
-4 30 32 50 44 24 59 41 33 35 -11 -2 -25 6 -36 21 -15 21 -16 25 -2 25 9 0
15 9 15 24 0 15 7 26 18 29 13 4 11 5 -5 6 -13 0 -23 -4 -23 -10 0 -5 -4 -8
-10 -4 -5 3 -7 12 -3 20 3 8 0 15 -6 15 -7 0 -9 10 -5 28 4 18 3 23 -4 14 -5
-8 -13 -13 -18 -12 -5 1 -10 -3 -12 -9 -2 -6 1 -11 7 -11 6 0 11 -5 11 -12 0
-6 -3 -9 -6 -6 -3 3 -17 -5 -31 -18 -14 -13 -32 -24 -39 -24 -7 0 -16 -4 -19
-10 -7 -11 23 -2 43 13 9 7 16 7 24 -1 16 -16 -1 -34 -25 -26 -21 6 -22 6 -4
-14 18 -20 18 -20 -2 -27 -12 -3 -21 -13 -21 -20 0 -9 -6 -12 -15 -9 -9 4 -15
0 -15 -10 0 -13 4 -14 28 -3 15 6 38 24 50 40 25 29 45 36 36 13 -3 -7 2 -16
12 -20 12 -5 14 -9 5 -20 -6 -7 -8 -16 -4 -20 4 -4 0 -4 -10 0 -13 5 -17 1
-17 -17 0 -13 -5 -31 -11 -39 -9 -13 -10 -13 -6 0 6 21 -11 50 -30 50 -13 0
-13 -3 -3 -15 10 -12 9 -15 -5 -15 -10 0 -15 -3 -12 -7 4 -3 2 -12 -4 -19 -8
-10 -8 -22 -1 -44 9 -25 8 -30 -4 -30 -8 0 -12 5 -9 10 9 15 -21 12 -34 -3 -6
-8 -8 -17 -4 -20 3 -4 1 -7 -5 -7 -6 0 -9 -6 -6 -13 2 -7 -4 -13 -16 -14 -24
-2 -25 1 -5 21 13 13 14 20 4 37 l-11 22 -14 -24 -13 -24 -8 23 -9 24 -12 -26
c-10 -22 -9 -26 5 -26 9 0 13 -3 10 -7 -4 -3 1 -12 10 -19 16 -11 16 -15 3
-40 -8 -16 -16 -32 -18 -37 -2 -4 0 -6 5 -5 4 2 18 -7 31 -20 12 -12 21 -22
20 -23 -24 -7 -40 -5 -45 7 -7 19 -22 18 -30 -3 -4 -10 -14 -24 -22 -31 -12
-10 -13 -15 -3 -18 6 -3 12 -13 12 -21 0 -13 -3 -13 -15 -3 -8 7 -15 18 -15
25 0 7 -11 12 -25 11 -20 -1 -25 -6 -25 -29 0 -17 -5 -27 -12 -25 -14 5 -20
39 -9 53 10 12 12 67 2 61 -4 -3 -7 4 -8 14 -2 19 -1 19 16 2 10 -9 21 -26 25
-36 6 -18 7 -18 20 -1 7 10 20 16 28 13 21 -8 34 2 41 34 8 32 -11 48 -28 24
-11 -15 -13 -13 -17 14 -3 16 -1 30 4 30 4 0 8 -4 8 -8 0 -18 26 -8 27 10 1
12 -4 18 -15 16 -11 -2 -17 4 -17 17 0 11 5 19 12 18 7 -2 10 4 7 12 -9 23
-21 18 -47 -20 -13 -19 -26 -32 -29 -29 -9 8 15 64 28 64 6 0 11 16 12 35 1
20 8 45 15 56 14 20 14 20 20 -1 3 -11 1 -20 -4 -20 -12 0 -11 -47 1 -55 6 -3
10 3 10 15 0 12 5 30 10 41 6 10 7 19 2 19 -5 0 -9 7 -9 15 0 11 3 12 14 3 8
-6 12 -17 9 -24 -3 -7 -1 -16 4 -19 5 -3 11 3 15 14 3 11 12 22 21 25 11 4 13
0 8 -21 -5 -18 -3 -24 6 -21 6 2 13 22 15 45 l3 40 -41 -9 c-28 -6 -43 -6 -45
1 -2 6 -13 11 -24 11 -14 0 -18 5 -14 15 3 9 0 15 -10 15 -8 0 -12 5 -9 10 3
6 -1 10 -10 10 -9 0 -22 -13 -28 -29 -18 -41 -40 -27 -28 17 9 29 8 32 -12 32
-18 0 -19 2 -7 10 8 5 12 10 9 10 -4 0 -3 15 1 34 4 19 4 40 -1 47 -7 12 -9
11 -10 -1 -1 -8 0 -23 1 -33 2 -20 -18 -49 -29 -42 -4 2 -7 -4 -7 -13 0 -51
-5 -69 -19 -69 -19 0 -18 7 0 31 21 28 19 39 -8 32 -19 -4 -24 0 -33 29 -11
34 -7 40 18 36 4 0 4 7 1 16 -4 9 -2 14 3 10 6 -3 11 3 11 15 2 17 -2 19 -24
13 -22 -5 -25 -3 -20 14 3 12 1 19 -3 16 -17 -10 -22 17 -6 33 15 15 16 15 17
-3 1 -16 2 -15 8 5 9 31 2 72 -10 64 -5 -3 -7 -10 -4 -15 4 -5 1 -9 -6 -9 -6
0 -18 -8 -25 -17 -12 -17 -13 -16 -14 6 0 17 -4 22 -16 17 -10 -4 -14 -1 -11
6 2 7 11 12 21 10 9 -2 16 1 16 7 0 5 3 18 6 28 6 15 3 14 -15 -4 -20 -21 -33
-27 -53 -25 -3 1 -12 -6 -19 -14 -10 -13 -10 -17 2 -26 11 -8 11 -9 -3 -4 -10
3 -18 1 -18 -4 0 -6 -5 -10 -11 -10 -5 0 -8 4 -5 9 10 15 -33 20 -45 5 -6 -8
-16 -11 -22 -7 -5 3 -7 1 -4 -4 4 -6 0 -13 -8 -17 -8 -3 -15 -12 -15 -19 0 -8
-7 -20 -15 -27 -8 -7 -13 -16 -10 -20 3 -5 1 -11 -4 -14 -5 -3 -11 5 -13 19
-3 13 0 26 6 28 6 2 0 6 -12 9 -12 4 -22 3 -22 -1 0 -5 -9 -19 -21 -32 -11
-13 -16 -25 -10 -27 6 -2 11 -12 11 -22 0 -23 -50 -35 -50 -11 -1 14 -2 14
-10 1 -12 -22 -64 -20 -68 3 -2 12 3 17 17 17 12 0 21 6 21 15 0 8 -4 15 -8
15 -5 0 -8 24 -8 52 1 44 -2 53 -18 56 -13 3 -16 0 -11 -9 6 -8 4 -10 -5 -4
-10 6 -10 11 3 20 23 16 21 22 -8 29 -16 4 -22 11 -19 21 4 9 0 15 -9 15 -9 0
-18 -13 -22 -30 -6 -28 -25 -43 -25 -20 0 5 -7 7 -15 4 -8 -4 -21 -1 -29 5
-10 9 -15 7 -18 -7 -4 -14 1 -18 21 -17 20 0 25 -4 23 -19 -2 -10 1 -15 7 -11
7 3 8 0 5 -9 -3 -9 -10 -13 -15 -10 -15 9 -10 -23 5 -35 22 -18 68 6 60 32 -4
13 -2 17 5 13 6 -4 11 -3 11 3 0 6 6 8 14 5 11 -4 12 -12 6 -28 -5 -14 -3 -28
6 -41 18 -24 18 -31 -1 -39 -10 -4 -19 2 -25 17 -8 21 -9 21 -9 -5 -1 -19 4
-28 14 -28 20 0 19 -16 -1 -24 -8 -3 -12 -11 -8 -17 4 -8 9 -7 15 2 12 19 22
4 25 -36 2 -31 0 -34 -17 -24 -13 6 -19 6 -19 -1 0 -5 -9 -10 -20 -10 -11 0
-20 5 -20 10 0 6 -11 10 -25 10 -14 0 -25 -5 -25 -11 0 -7 -10 -9 -24 -5 -32
8 -59 -3 -51 -21 3 -10 1 -13 -9 -10 -10 4 -16 -2 -19 -16 -3 -22 -4 -22 -16
3 l-12 25 6 -25 c2 -14 5 -32 5 -40 0 -12 2 -12 9 -1 6 9 11 10 15 2 8 -12
-21 -28 -31 -17 -4 3 -14 -1 -24 -10 -16 -14 -18 -14 -24 5 -7 24 -25 28 -25
6 0 -8 4 -15 10 -15 13 0 8 -34 -5 -37 -6 -1 -9 7 -8 18 3 19 -25 27 -41 12
-4 -5 -12 -9 -17 -9 -5 -1 -13 -2 -18 -3 -6 0 -3 -13 5 -28 7 -16 14 -35 13
-43 0 -8 -6 0 -13 19 -18 52 -36 51 -36 -1 0 -30 3 -39 10 -28 8 12 10 12 15
-2 4 -10 15 -20 26 -23 25 -8 24 -42 -1 -80 -11 -16 -20 -24 -20 -17 0 6 -4
12 -10 12 -5 0 -10 -6 -10 -14 0 -8 -9 -18 -21 -21 -25 -8 -21 -41 4 -37 21 4
47 -20 52 -48 2 -11 6 -24 9 -28 2 -4 -15 -7 -39 -6 -45 2 -91 26 -81 42 3 5
-10 14 -29 20 -34 10 -37 8 -37 -18 -1 -3 2 -25 6 -50 4 -30 3 -40 -3 -30 -6
8 -13 11 -17 7 -4 -4 -14 -1 -22 6 -13 10 -14 9 -9 -8 8 -26 -6 -48 -28 -43
-21 4 -48 75 -31 82 7 3 6 5 -2 5 -7 1 -10 6 -7 11 5 8 11 7 21 -1 17 -14 18
-5 2 21 -11 17 -10 22 2 30 13 9 13 12 -2 24 -10 7 -18 18 -18 25 0 6 -4 11
-8 11 -5 0 -13 12 -18 28 l-11 27 -18 -30 c-10 -17 -29 -36 -42 -42 -20 -10
-24 -8 -29 13 -8 29 -24 32 -24 3 0 -11 5 -17 10 -14 12 8 13 3 0 -29 -6 -17
-6 -26 0 -26 6 0 10 7 10 15 0 21 9 19 31 -7 22 -25 23 -30 7 -47 -11 -11 -10
-13 2 -9 8 3 20 -2 25 -9 15 -20 6 -83 -11 -83 -8 0 -14 -4 -14 -10 0 -14 13
-13 29 3 10 10 15 9 24 -4 13 -17 47 -22 47 -7 0 5 -12 13 -26 19 -26 9 -26
10 -8 30 18 20 19 20 22 3 2 -11 8 -23 12 -28 5 -5 6 -31 3 -59 -4 -34 -3 -48
4 -44 6 4 9 16 6 27 -4 16 0 20 21 20 17 0 26 5 26 16 0 8 5 12 10 9 14 -8 -6
-35 -26 -35 -8 0 -14 -14 -16 -36 l-3 -36 -28 22 c-22 17 -27 28 -23 46 4 14
2 24 -4 24 -5 0 -10 -9 -10 -20 0 -15 -9 -22 -30 -26 -16 -4 -27 -11 -24 -16
12 -19 -58 31 -73 52 -16 22 -15 23 15 18 20 -3 33 0 36 9 3 7 -1 13 -9 13 -8
0 -15 5 -15 11 0 5 -4 7 -10 4 -5 -3 -12 6 -16 20 -6 23 -8 24 -18 9 -10 -13
-17 -14 -34 -5 -29 15 -37 14 -22 -4 10 -12 10 -15 -4 -15 -9 0 -16 -4 -16
-10 0 -10 14 -14 39 -11 7 2 10 -3 6 -9 -4 -6 -14 -9 -22 -6 -12 5 -14 1 -10
-14 3 -11 1 -18 -4 -14 -5 3 -9 1 -9 -4 0 -14 -29 -10 -34 5 -7 18 -36 17 -36
-1 0 -24 -14 -26 -40 -4 -25 19 -25 20 -3 15 31 -7 40 11 14 29 -19 14 -21 41
-1 29 4 -3 10 5 14 18 8 32 7 37 -5 35 -6 -2 -14 3 -16 10 -3 7 -1 12 4 11 19
-3 23 2 13 21 -8 16 -8 18 4 14 11 -4 13 0 9 15 -3 11 -9 18 -14 15 -5 -3 -9
1 -9 10 0 8 -6 16 -12 19 -7 2 -10 7 -7 10 3 4 24 -12 48 -34 39 -38 43 -39
48 -20 3 11 9 18 14 15 5 -3 9 -1 9 4 0 6 7 12 15 16 22 8 19 1 -15 -35 -33
-37 -33 -47 2 -28 12 7 29 12 36 11 12 -3 11 19 -3 65 -2 6 0 13 5 15 5 2 4
18 -3 38 -10 28 -17 34 -34 32 -13 -2 -23 1 -23 7 0 15 30 29 54 25 12 -3 15
-2 9 2 -20 9 -16 45 3 37 12 -4 15 -2 12 8 -2 8 -15 16 -27 17 -13 2 -21 -1
-17 -6 3 -5 -1 -12 -8 -15 -9 -4 -24 6 -37 23 -21 26 -24 27 -46 13 -13 -8
-29 -13 -36 -10 -11 4 -13 -3 -10 -29 2 -19 -1 -42 -6 -52 -6 -10 -11 -12 -11
-4 0 13 -20 17 -20 4 0 -5 8 -17 18 -28 23 -25 26 -49 7 -64 -12 -10 -15 -10
-15 4 0 10 5 14 10 11 5 -3 10 -2 10 4 0 5 -12 14 -27 19 -16 6 -23 11 -17 11
18 1 4 50 -17 62 -15 7 -19 6 -19 -6 0 -8 -7 -15 -15 -15 -8 0 -15 5 -15 12 0
9 -3 9 -12 0 -7 -7 -17 -12 -22 -12 -6 0 -3 5 6 11 10 5 18 15 18 20 0 6 -4 7
-10 4 -6 -3 -7 1 -4 9 7 17 -11 22 -21 6 -16 -25 -125 -1 -167 37 -10 9 -18
12 -18 7 1 -12 47 -64 57 -64 5 0 19 -7 32 -16 21 -15 21 -18 7 -26 -9 -5 -16
-14 -16 -21 0 -7 4 -6 10 3 8 12 10 12 10 1 0 -8 -8 -20 -17 -27 -17 -13 -17
-13 2 -14 14 0 16 -3 7 -8 -9 -6 -6 -12 13 -20 17 -8 25 -20 25 -36 0 -32 -14
-36 -75 -20 -68 19 -75 17 -41 -10 37 -31 31 -68 -16 -87 -31 -13 -31 -13 -7
-20 13 -4 36 -10 51 -13 18 -4 33 -18 44 -41 9 -19 20 -32 25 -29 14 8 11 36
-7 56 -15 16 -15 18 -1 24 9 3 15 11 13 17 -1 7 -1 9 1 5 3 -5 11 -8 19 -8 9
0 12 -4 9 -10 -3 -5 -3 -16 2 -22 12 -20 12 -38 1 -38 -6 0 -8 -12 -5 -26 3
-18 1 -24 -9 -20 -7 3 -24 -4 -38 -15 l-26 -20 0 25 c0 28 5 26 -133 57 -68
15 -101 27 -107 40 -14 25 -3 46 31 61 16 7 29 16 29 20 0 5 14 8 32 8 l32 0
-42 43 c-58 59 -54 107 10 107 33 0 38 24 8 40 -16 9 -18 15 -10 30 14 26 13
29 -10 23 -24 -6 -58 -108 -92 -274 -20 -99 -23 -143 -22 -329 0 -183 3 -230
22 -315 24 -108 57 -220 47 -155 -4 19 -9 60 -12 90 -3 30 -11 58 -17 63 -8 5
-8 9 0 15 8 5 12 66 11 202 0 163 3 242 12 293 2 10 35 9 68 -4 26 -10 27 -12
8 -19 -13 -6 -15 -9 -5 -9 12 -1 12 -3 2 -10 -7 -4 -14 -26 -15 -49 -1 -23 -5
-42 -9 -42 -6 0 -6 -20 1 -89 1 -11 4 -11 19 2 24 22 78 17 74 -7 -2 -10 0
-16 5 -13 5 3 13 -6 20 -19 6 -14 7 -26 2 -30 -5 -3 -9 0 -9 5 0 15 -19 14
-35 -3 -19 -19 2 -37 33 -29 18 4 22 1 22 -16 0 -14 -4 -20 -12 -15 -8 5 -9 2
-5 -9 10 -26 -11 -20 -40 11 -15 15 -23 22 -19 15 3 -6 2 -14 -4 -18 -5 -3
-10 -1 -10 4 0 6 -5 11 -12 11 -9 0 -9 -3 0 -12 7 -7 20 -13 30 -13 11 0 18
-9 20 -27 3 -21 0 -27 -12 -22 -8 3 -13 11 -10 18 3 7 -1 13 -9 13 -24 0 -7
-38 22 -48 23 -9 24 -11 8 -20 -9 -6 -15 -14 -12 -20 9 -14 35 -11 35 4 0 14
41 57 53 57 4 0 7 -7 7 -15 0 -18 17 -20 23 -2 2 6 7 9 10 6 11 -9 -46 -89
-64 -89 -9 0 -23 -8 -30 -17 -10 -11 -10 -14 -1 -9 6 4 12 3 12 -3 0 -21 -20
-21 -39 0 -18 20 -48 19 -36 -2 3 -5 0 -6 -8 -3 -8 3 -17 -2 -20 -10 -6 -14 4
-21 26 -17 4 0 7 -7 7 -16 0 -13 -3 -14 -12 -5 -18 18 -48 15 -48 -5 0 -9 3
-14 6 -10 11 11 36 -22 30 -41 -4 -11 2 -22 14 -30 19 -12 20 -11 14 13 -4 15
-2 25 5 25 6 0 12 -8 13 -17 0 -10 2 -22 3 -28 2 -5 3 -13 4 -17 0 -4 14 -3
30 2 39 11 63 -5 37 -25 -17 -13 -18 -18 -7 -41 9 -21 14 -24 26 -14 8 7 12
16 9 21 -3 5 6 4 20 -3 14 -6 26 -18 26 -27 -1 -17 -30 -61 -30 -45 0 5 -4 4
-8 -3 -4 -7 -6 -30 -4 -52 3 -29 8 -38 18 -34 8 3 14 -1 14 -8 0 -11 3 -11 10
1 8 12 10 11 10 -6 0 -20 24 -40 43 -36 4 1 7 -10 7 -25 0 -20 3 -24 9 -14 7
11 13 10 35 -4 14 -10 26 -26 26 -36 0 -26 15 -24 38 6 11 14 25 25 31 25 13
0 15 -37 3 -42 -5 -1 -12 -16 -16 -33 -5 -22 -4 -26 4 -15 5 8 10 11 10 6 0
-6 5 -5 12 2 7 7 22 12 34 12 27 0 42 19 25 30 -8 5 -1 14 22 28 33 19 47 19
47 0 0 -4 -7 -8 -15 -8 -8 0 -15 -9 -15 -20 0 -18 10 -25 33 -21 4 0 7 -4 7
-10 0 -6 -9 -9 -20 -6 -24 6 -25 1 -4 -20 14 -14 17 -14 30 6 9 12 26 21 40
21 17 0 24 5 24 20 0 11 5 20 10 20 6 0 10 -16 10 -36 0 -19 -4 -33 -9 -30 -4
3 -13 -6 -19 -20 -11 -23 -11 -24 11 -13 12 7 25 17 29 23 6 8 8 7 8 -1 0 -9
8 -9 32 -1 18 6 27 13 20 16 -17 5 -15 29 3 36 13 5 15 -1 10 -34 -5 -30 -2
-42 9 -46 19 -7 63 35 47 46 -8 4 -10 17 -5 35 6 25 8 26 19 11 11 -15 13 -15
19 -1 3 9 11 13 17 9 7 -4 7 -9 1 -13 -5 -3 -12 -15 -16 -26 -4 -15 0 -23 17
-31 12 -5 21 -16 19 -24 -3 -11 0 -11 12 0 18 14 22 50 6 50 -5 0 -7 6 -4 14
3 8 13 12 25 9 14 -4 17 -11 13 -29 -5 -21 -3 -24 19 -24 22 0 37 16 37 41 0
5 -7 9 -15 9 -8 0 -15 5 -15 11 0 6 6 9 14 6 8 -3 17 -3 19 1 2 4 3 2 1 -4 -1
-6 2 -17 6 -25 5 -8 4 -19 -2 -26 -7 -9 -7 -13 1 -13 6 0 11 -7 11 -15 0 -8 9
-15 20 -15 11 0 20 -6 20 -12 1 -7 7 -2 15 12 13 23 14 23 15 5 1 -11 4 -14 7
-7 8 21 23 13 23 -14 0 -15 4 -23 10 -19 16 10 7 -18 -10 -32 -21 -17 1 -16
24 2 10 7 16 20 14 27 -5 15 9 31 35 41 12 5 29 -1 48 -14 16 -11 29 -16 29
-10 0 6 0 14 0 19 0 4 -6 7 -12 7 -7 1 -12 6 -11 13 2 6 -4 9 -12 6 -27 -11
-129 132 -140 196 -7 42 8 105 32 128 19 19 16 32 -8 32 -15 0 -19 -5 -15 -16
3 -8 2 -13 -3 -10 -16 10 -20 46 -6 46 8 0 18 8 24 17 9 16 11 16 28 2 27 -24
50 -29 62 -15 7 9 7 16 -1 24 -8 8 -4 14 17 22 22 8 30 7 40 -6 6 -10 17 -14
23 -10 7 4 12 2 12 -5 0 -8 14 -10 44 -7 25 3 48 2 53 -3 4 -4 15 -4 23 1 13
8 12 10 -2 10 -21 0 -23 7 -5 24 6 8 18 23 26 34 18 25 34 18 26 -11 -2 -12
-2 -16 1 -9 3 6 11 9 17 5 7 -4 8 0 4 11 -4 10 -3 15 3 11 5 -3 14 4 20 15 8
15 7 26 -6 45 -16 24 -16 25 7 25 13 0 32 -7 42 -14 18 -14 23 -46 7 -46 -5 0
-10 7 -10 15 0 8 -5 15 -11 15 -6 0 -9 -10 -7 -22 4 -30 58 -40 58 -12 0 13 3
15 11 7 13 -13 42 -6 33 8 -3 5 3 17 12 26 16 17 17 16 10 -11 -7 -28 -6 -29
25 -22 17 3 38 6 45 6 9 0 13 10 12 26 -2 19 -7 24 -20 21 -11 -3 -18 0 -18 8
0 7 8 12 18 11 11 -1 17 6 17 19 0 11 -6 19 -13 17 -9 -2 -12 4 -8 16 4 11 0
24 -9 32 -21 17 -19 30 5 30 11 0 40 10 65 22 40 19 47 20 55 8 6 -10 5 -16
-1 -19 -6 -2 -15 3 -20 10 -7 12 -9 12 -9 1 0 -8 -9 -25 -20 -39 -15 -19 -19
-40 -19 -94 0 -38 4 -69 8 -69 5 0 6 12 3 26 -3 19 -1 25 7 20 6 -4 11 -16 11
-26 0 -27 64 -39 89 -16 23 21 30 20 41 -6 8 -21 9 -21 9 8 1 16 -4 35 -11 42
-8 8 -9 12 -1 12 6 0 9 9 6 20 -6 23 -41 35 -72 25 -12 -4 -21 -2 -21 4 0 6 6
11 14 11 12 0 13 7 6 31 -7 25 -6 30 5 25 7 -2 19 2 25 10 7 8 19 14 26 14 8
0 14 4 14 8 0 10 -41 9 -57 -1 -14 -9 -23 13 -12 28 5 5 19 23 33 40 22 28 23
31 7 54 -15 24 -15 25 3 18 15 -6 17 -5 7 7 -9 11 -8 18 6 32 13 12 14 19 5
22 -7 2 -10 8 -7 12 3 5 13 6 22 3 10 -4 14 -2 10 4 -4 6 6 10 23 11 28 1 36
-10 31 -41 -1 -4 6 -10 14 -13 11 -5 12 -11 5 -25 -13 -24 -42 -13 -38 14 5
33 -19 31 -36 -4 -15 -29 -14 -34 3 -73 11 -23 20 -33 20 -23 1 10 6 15 11 12
6 -4 8 -15 5 -26 -7 -20 9 -27 20 -9 10 16 35 12 35 -6 0 -9 -9 -18 -19 -21
-13 -3 -18 -10 -14 -21 5 -11 2 -14 -10 -9 -10 4 -20 0 -25 -10 -7 -12 -13
-13 -31 -4 -14 8 -21 8 -21 1 0 -17 4 -25 15 -26 25 -3 27 -5 15 -19 -10 -12
-8 -14 8 -10 17 3 19 -1 16 -33 -3 -21 -5 -44 -6 -52 -4 -48 3 -82 16 -77 8 3
17 1 19 -6 2 -7 8 -9 12 -4 5 4 3 13 -3 19 -16 16 -15 28 3 28 8 0 15 6 15 14
0 9 8 13 23 10 12 -2 16 -2 10 2 -18 8 -16 21 2 21 8 0 15 -4 15 -8 0 -3 8 -9
18 -13 9 -3 23 -9 30 -12 7 -3 12 1 12 10 0 9 -6 16 -12 16 -17 0 12 20 30 20
9 0 10 -5 2 -19 -5 -11 -10 -36 -10 -55 0 -35 -12 -47 -25 -26 -4 6 -11 8 -16
5 -5 -4 -9 2 -9 12 0 12 -8 19 -22 20 -15 2 -18 -1 -10 -6 7 -4 10 -15 6 -25
-5 -13 -9 -14 -20 -5 -11 9 -15 7 -20 -5 -4 -11 5 -27 26 -47 27 -26 32 -39
34 -80 0 -26 5 -44 9 -40 12 12 47 1 47 -14 0 -8 -9 -10 -25 -8 -19 4 -25 0
-31 -21 -3 -14 -4 -36 -1 -49 4 -12 7 -77 8 -145 1 -106 3 -122 18 -122 9 0
12 3 6 8 -13 9 -18 32 -7 32 4 0 12 -3 18 -7 5 -5 1 0 -9 9 -10 9 -13 19 -8
23 11 6 51 -15 51 -28 0 -5 9 -5 20 -2 12 4 27 2 34 -4 10 -9 15 -8 19 3 5 12
-5 17 -43 22 -27 4 -55 14 -62 22 -11 13 -10 15 6 9 12 -5 23 -1 33 10 14 17
14 17 10 -4 -3 -15 -1 -20 9 -16 8 3 11 9 8 14 -8 13 10 11 24 -3 9 -9 15 -9
25 0 6 7 12 18 12 24 0 6 6 13 14 16 10 3 12 -1 8 -14 -7 -18 -6 -18 7 -1 12
16 13 16 14 -7 0 -18 -5 -23 -17 -19 -13 4 -13 2 2 -7 23 -15 36 -5 31 23 -2
12 -1 16 2 9 5 -10 9 -10 21 -1 11 10 19 8 38 -13 13 -14 22 -28 20 -30 -2 -2
4 -4 14 -4 11 0 17 6 14 13 -3 9 4 13 22 13 24 0 26 2 14 16 -10 13 -10 17 2
24 10 7 16 4 21 -10 5 -13 13 -17 27 -13 12 3 21 1 21 -6 0 -7 9 -21 20 -33
18 -19 20 -20 26 -4 4 11 0 24 -11 34 -11 11 -15 12 -10 3 5 -9 4 -12 -3 -7
-17 10 -15 26 3 26 8 0 15 5 15 11 0 5 -4 7 -10 4 -15 -9 -12 7 5 29 14 18 20
15 16 -7 -1 -4 5 -15 13 -23 16 -15 56 -19 56 -5 0 7 54 8 70 1 3 -1 9 -2 13
-1 4 1 17 -4 29 -10 11 -6 18 -7 14 -1 -7 12 49 37 63 28 5 -3 11 0 14 6 3 10
9 10 24 1 16 -9 20 -8 20 3 0 13 -21 18 -59 15 -11 -2 -18 5 -18 16 0 15 2 16
10 3 9 -13 13 -12 27 5 13 16 15 17 10 3 -5 -15 0 -18 28 -18 19 0 34 3 33 7
-2 5 0 9 5 11 16 5 19 1 7 -13 -14 -17 -5 -35 16 -35 8 0 13 4 10 9 -4 5 4 7
16 3 14 -3 19 -2 14 6 -4 7 -13 12 -20 12 -7 0 -11 11 -10 28 2 43 3 44 22 26
16 -17 17 -17 20 4 3 20 13 27 35 23 5 -1 7 4 5 11 -3 7 -11 13 -19 13 -18 0
-32 22 -24 36 4 6 12 3 21 -8 7 -10 14 -13 14 -6 0 14 48 -8 61 -29 4 -7 11
-9 16 -5 4 5 3 11 -2 15 -16 11 -17 34 -3 43 9 6 8 10 -5 15 -10 4 -17 16 -16
33 0 14 3 20 6 13 2 -6 9 -10 14 -6 12 7 12 51 0 58 -5 3 -8 17 -8 32 0 20 3
25 18 21 11 -3 21 -1 24 4 3 4 13 5 21 2 14 -5 14 -3 3 16 -8 12 -15 17 -17
11 -7 -19 -20 -10 -25 18 -4 17 -13 28 -24 30 -68 6 -75 11 -80 47 -3 18 1 23
16 22 15 -1 17 -4 9 -14 -12 -15 -13 -15 28 -29 27 -10 33 -8 52 13 12 14 20
29 16 34 -3 5 0 9 5 9 6 0 11 -5 11 -11 0 -5 4 -7 10 -4 14 8 -12 46 -27 40
-7 -2 -13 0 -13 6 0 6 -4 7 -10 4 -15 -9 -12 31 3 44 8 6 23 9 35 6 28 -5 50
21 32 38 -10 10 -12 8 -6 -8 5 -18 4 -18 -13 3 -13 15 -21 18 -24 10 -3 -7 -6
-3 -6 8 -1 12 -9 28 -18 35 -16 13 -17 12 -4 -3 12 -16 10 -20 -24 -34 -20 -8
-40 -13 -43 -10 -3 3 1 6 9 6 8 0 4 8 -11 20 -19 15 -21 20 -9 20 9 0 22 7 29
15 7 9 19 14 27 11 7 -3 13 -1 13 4 0 6 -6 10 -13 10 -7 0 -13 10 -14 21 -2
24 38 63 48 47 8 -12 49 -1 49 13 0 6 -4 7 -10 4 -5 -3 -10 -2 -10 3 0 14 -43
2 -52 -14 -9 -13 -48 -7 -48 8 0 5 9 6 20 3 11 -3 20 -2 20 4 0 5 8 18 18 27
15 16 15 17 0 12 -11 -5 -18 0 -21 13 -4 15 -2 19 8 15 8 -3 17 -1 20 4 10 16
28 11 21 -5 -4 -10 1 -15 15 -15 11 0 18 4 14 9 -3 5 -1 12 5 16 15 9 12 35
-4 35 -8 0 -17 -6 -19 -12 -3 -7 -6 -1 -6 14 -1 31 16 47 25 24 3 -9 11 -16
17 -16 5 0 2 9 -8 20 -10 11 -22 20 -26 20 -4 0 -11 -9 -14 -20 -10 -32 -35
-25 -35 10 0 22 5 30 18 30 16 1 16 1 0 11 -10 5 -18 15 -18 21 0 6 5 7 13 2
17 -13 70 -9 75 5 12 35 112 35 112 0 0 -10 10 -24 23 -30 34 -18 37 -28 36
-119 0 -47 3 -93 6 -103 10 -24 29 -16 33 14 2 13 14 33 27 44 24 20 24 21 15
135 -12 143 -32 259 -65 375 -203 698 -797 1194 -1527 1274 -122 14 -185 14
-193 1z m-185 -690 c0 -5 -2 -10 -4 -10 -3 0 -8 5 -11 10 -3 6 -1 10 4 10 6 0
11 -4 11 -10z m315 -49 c3 -5 1 -12 -5 -16 -5 -3 -10 1 -10 9 0 18 6 21 15 7z
m52 -36 c0 -8 -4 -12 -9 -9 -4 3 -8 9 -8 15 0 5 4 9 8 9 5 0 9 -7 9 -15z
m-167 -20 c0 -8 -4 -15 -10 -15 -5 0 -10 7 -10 15 0 8 5 15 10 15 6 0 10 -7
10 -15z m141 -22 c12 -15 12 -16 -2 -11 -13 5 -16 2 -12 -15 4 -18 3 -19 -6
-7 -13 18 -14 50 -2 50 5 0 15 -8 22 -17z m61 -27 c12 -18 9 -26 -9 -26 -10 0
-27 -12 -40 -26 -20 -24 -22 -24 -20 -5 1 12 5 21 10 21 5 0 7 7 3 15 -3 8 -1
15 4 15 6 0 10 7 10 15 0 16 29 10 42 -9z m-152 -16 c0 -5 -4 -10 -10 -10 -5
0 -10 5 -10 10 0 6 5 10 10 10 6 0 10 -4 10 -10z m190 -35 c18 -22 -3 -72 -23
-54 -10 10 -16 53 -8 67 4 7 20 0 31 -13z m-56 -43 c-4 -9 -7 -20 -6 -24 2
-10 -27 -18 -33 -8 -3 4 1 15 9 22 7 8 17 25 22 38 6 21 9 22 12 7 2 -10 0
-26 -4 -35z m-206 7 c13 -16 18 -29 12 -29 -7 0 -10 -7 -7 -14 4 -10 1 -13 -9
-9 -8 3 -13 12 -10 19 3 7 -1 20 -9 28 -16 15 -20 36 -7 35 4 0 17 -13 30 -30z
m817 12 c3 -5 0 -13 -6 -17 -7 -4 -9 -3 -5 4 3 6 -2 13 -11 15 -16 4 -16 5 -1
6 9 0 19 -3 23 -8z m-931 -36 c-4 -8 -8 -15 -10 -15 -2 0 -4 7 -4 15 0 8 4 15
10 15 5 0 7 -7 4 -15z m86 -28 c0 -5 -7 -2 -15 7 -8 8 -15 20 -15 27 0 14 29
-20 30 -34z m120 23 c-8 -5 -17 -7 -19 -4 -3 3 1 9 9 14 8 5 17 7 19 4 3 -3
-1 -9 -9 -14z m-400 0 c-13 -8 -12 -10 1 -15 9 -3 16 -18 16 -35 0 -38 -15
-39 -23 -2 -3 15 -8 35 -11 45 -3 12 1 17 14 17 15 0 16 -2 3 -10z m88 -15
c-3 -3 -9 2 -12 12 -6 14 -5 15 5 6 7 -7 10 -15 7 -18z m274 3 c-7 -7 -12 -8
-12 -2 0 14 12 26 19 19 2 -3 -1 -11 -7 -17z m354 -3 c-9 -14 -14 -30 -11 -35
3 -6 2 -10 -4 -10 -19 0 -22 20 -7 36 9 8 16 20 16 25 0 5 5 9 11 9 7 0 5 -10
-5 -25z m-568 -10 c0 -15 -6 -25 -14 -25 -8 0 -14 -3 -15 -7 0 -5 -2 -16 -4
-25 -2 -10 3 -18 11 -18 8 0 14 5 14 11 0 5 5 7 10 4 6 -3 7 -18 4 -32 -5 -19
-4 -24 6 -18 9 6 10 2 4 -16 -4 -13 -7 -32 -6 -41 0 -10 -3 -18 -7 -18 -16 0
-28 25 -27 52 1 14 -2 24 -6 22 -4 -3 -13 8 -20 23 -7 15 -17 31 -22 34 -13
10 1 39 19 39 8 0 15 7 15 16 0 10 6 14 15 10 8 -3 15 -1 15 4 0 6 2 10 4 10
2 0 4 -11 4 -25z m470 -10 c1 -20 4 -40 7 -45 10 -16 -12 -20 -25 -5 -18 21
-32 18 -25 -5 5 -15 3 -18 -8 -14 -9 3 -13 13 -9 26 4 17 2 20 -11 15 -19 -7
-24 17 -7 28 6 4 8 11 4 16 -3 6 11 3 30 -5 20 -8 34 -11 31 -6 -5 9 1 30 9
30 2 0 3 -16 4 -35z m192 16 c0 -5 -7 -11 -15 -15 -15 -5 -20 5 -8 17 9 10 23
9 23 -2z m-836 -36 c3 -8 1 -15 -3 -15 -5 0 -11 7 -15 15 -3 8 -1 15 3 15 5 0
11 -7 15 -15z m801 -25 c-10 -11 -28 -20 -41 -20 -12 0 -25 -6 -27 -12 -4 -10
-8 -9 -16 2 -10 15 5 34 20 24 4 -2 20 3 35 11 40 21 50 19 29 -5z m-306 -17
c-1 -17 -3 -21 -6 -10 -5 19 -23 24 -23 5 0 -6 -3 -8 -6 -5 -8 8 14 37 27 37
5 0 8 -12 8 -27z m916 -73 c0 -8 -4 -19 -10 -23 -6 -5 -1 -7 10 -5 13 2 21 12
23 30 2 14 10 29 18 32 15 6 19 -5 7 -18 -4 -3 -8 -12 -9 -19 -2 -7 -6 -23
-10 -37 -7 -23 -6 -24 9 -11 15 12 17 12 11 -3 -3 -9 -10 -16 -15 -16 -5 0 -9
-7 -9 -15 0 -19 14 -19 34 1 19 18 20 15 6 -21 -7 -17 -15 -25 -25 -22 -9 4
-12 1 -8 -9 3 -7 9 -14 15 -14 5 0 7 -8 4 -18 -4 -10 0 -27 8 -37 12 -16 16
-17 30 -6 17 14 19 12 10 -13 -3 -9 -10 -13 -15 -10 -5 3 -6 -2 -3 -10 8 -21
-5 -20 -28 1 -10 9 -18 28 -18 43 0 16 -7 30 -15 34 -8 3 -15 1 -15 -4 0 -6 4
-10 8 -10 4 0 8 -9 9 -20 1 -11 -2 -18 -8 -15 -5 4 -9 13 -9 21 0 8 -6 17 -14
20 -8 3 -12 12 -9 20 3 8 0 14 -7 14 -6 0 -9 4 -6 9 8 12 -50 20 -66 9 -7 -4
-8 -8 -3 -8 6 0 3 -6 -6 -13 -17 -13 -11 -51 6 -45 6 2 11 -7 13 -19 2 -13 8
-23 14 -23 6 0 5 -6 -2 -15 -11 -13 -10 -18 6 -30 10 -8 27 -15 37 -15 17 0
17 -1 3 -16 -9 -8 -16 -23 -17 -32 0 -12 -3 -11 -9 6 -5 12 -14 22 -20 22 -6
0 -8 -4 -5 -10 3 -5 -3 -15 -14 -21 -18 -12 -18 -13 -1 -28 15 -13 16 -22 8
-51 -6 -19 -13 -29 -15 -22 -4 10 -9 10 -23 -3 -11 -10 -16 -24 -12 -33 5 -15
3 -15 -10 -4 -11 9 -18 10 -23 2 -3 -5 -1 -10 4 -10 6 0 11 -7 11 -16 0 -9 6
-14 13 -11 6 2 18 -10 25 -27 7 -17 10 -21 8 -9 -2 13 2 24 11 27 8 4 13 12
10 20 -9 22 5 28 23 11 16 -15 18 -14 18 10 0 15 5 32 11 38 16 16 9 -83 -9
-132 -8 -21 -9 -35 -3 -40 10 -6 25 -51 28 -83 1 -9 10 -24 19 -33 20 -20 22
-43 3 -26 -17 13 -27 5 -20 -17 3 -13 0 -11 -14 4 -10 11 -25 23 -32 25 -17 6
-24 39 -8 39 8 0 8 3 0 11 -8 8 -8 19 0 39 9 24 8 32 -6 48 -13 14 -14 21 -5
30 6 6 13 25 15 43 3 27 1 30 -12 19 -8 -7 -12 -17 -9 -22 10 -15 -17 -57 -32
-51 -8 3 -14 1 -14 -5 0 -6 6 -13 13 -15 7 -3 4 -6 -6 -6 -12 -1 -16 -5 -11
-13 5 -8 1 -8 -12 2 -10 8 -20 15 -22 16 -2 1 2 12 8 24 8 15 8 25 1 34 -6 7
-13 31 -16 53 -4 31 -1 42 11 47 8 3 12 10 9 16 -5 9 6 14 26 12 5 -1 5 9 -1
58 -1 8 -5 4 -9 -10 -4 -14 -13 -24 -19 -22 -7 1 -11 -1 -11 -5 4 -22 -2 -43
-10 -39 -5 4 -11 3 -14 -1 -2 -5 -2 -3 -1 4 4 18 -17 28 -26 13 -4 -7 -5 -21
-3 -31 3 -10 1 -19 -4 -19 -15 0 -43 35 -48 60 -3 18 -2 20 10 10 19 -16 19
-11 -1 28 -16 32 -28 44 -18 18 3 -8 0 -17 -7 -22 -7 -4 -10 -3 -5 4 3 6 2 22
-4 36 -7 19 -6 26 2 26 6 0 9 2 6 5 -13 13 -35 -8 -31 -28 5 -18 3 -20 -8 -9
-11 10 -11 17 -2 31 10 16 9 18 -8 14 -17 -5 -20 -11 -14 -40 4 -24 3 -33 -7
-31 -8 2 -12 -5 -10 -17 2 -19 2 -19 -12 -2 -8 11 -12 25 -9 33 3 8 0 14 -7
14 -8 0 -10 -8 -7 -21 5 -17 2 -20 -14 -16 -16 4 -19 2 -14 -16 4 -12 -7 -2
-24 23 -17 25 -31 55 -31 68 0 15 -4 21 -11 16 -7 -4 -10 -1 -7 7 3 8 -2 19
-10 25 -15 11 -9 34 9 34 6 0 7 -4 4 -10 -3 -5 -1 -10 4 -10 6 0 11 -6 11 -12
0 -7 12 -21 25 -31 22 -15 25 -16 25 -2 0 19 9 19 32 -2 17 -15 18 -15 18 0 0
10 5 17 10 17 6 0 10 -4 10 -10 0 -5 7 -10 15 -10 9 0 12 6 9 15 -4 9 0 15 10
15 10 0 16 8 16 21 0 19 1 19 16 5 20 -21 23 -20 17 3 -3 10 0 22 6 25 6 4 11
1 11 -6 1 -7 7 0 14 17 10 24 13 26 19 12 3 -9 15 -17 26 -17 14 0 19 5 15 15
-9 22 5 38 22 24 11 -9 14 -7 14 15 0 19 -5 26 -20 26 -12 0 -20 7 -20 18 0
14 2 15 10 2 16 -26 24 -1 11 35 -14 39 -8 70 14 79 8 3 15 12 15 21 0 8 7 15
15 15 8 0 15 -7 15 -15 0 -8 -4 -15 -10 -15 -5 0 -10 -8 -10 -17 0 -14 -2 -15
-9 -5 -13 21 -34 -13 -27 -43 8 -30 26 -24 26 8 0 15 3 18 11 10 7 -7 8 -22 1
-46 -9 -31 -8 -36 9 -40 12 -3 19 0 19 8 0 7 14 19 30 27 17 7 30 16 30 20 0
4 6 5 14 2 7 -3 16 1 19 10 5 14 -26 29 -62 31 -15 0 -35 54 -25 64 3 3 18 -8
32 -26 23 -27 29 -30 40 -18 6 8 12 24 12 37 1 22 1 22 12 3 7 -11 12 -27 13
-35z m-1493 22 c3 -11 0 -19 -7 -19 -7 0 -10 8 -7 19 2 10 6 18 7 18 1 0 5 -8
7 -18z m565 4 c-3 -7 0 -20 6 -27 10 -11 9 -11 -5 0 -15 11 -15 41 -1 41 3 0
3 -6 0 -14z m663 -6 c0 -5 10 -10 22 -10 l21 0 -21 -23 c-12 -13 -22 -32 -23
-43 0 -18 -1 -18 -9 1 -12 29 -12 37 3 28 6 -4 4 5 -5 20 -22 32 -22 37 -3 37
8 0 15 -4 15 -10z m-1065 -10 c-3 -5 -12 -10 -18 -10 -7 0 -6 4 3 10 19 12 23
12 15 0z m1041 -17 c-7 -7 -26 7 -26 19 0 6 6 6 15 -2 9 -7 13 -15 11 -17z
m-387 -9 c-8 -24 -8 -25 6 -14 8 7 18 10 21 7 10 -10 -7 -48 -19 -44 -7 2 -22
0 -35 -4 -20 -8 -23 -6 -17 10 3 11 1 22 -5 26 -15 9 -12 35 4 29 8 -3 17 -1
21 5 3 6 13 11 20 11 12 0 12 -6 4 -26z m-689 7 c0 -6 -4 -13 -10 -16 -5 -3
-10 1 -10 9 0 9 5 16 10 16 6 0 10 -4 10 -9z m360 0 c0 -6 -4 -12 -8 -15 -5
-3 -9 1 -9 9 0 8 4 15 9 15 4 0 8 -4 8 -9z m-1167 -8 c7 -11 -11 -53 -22 -53
-5 0 -12 7 -15 16 -6 15 -4 15 10 3 16 -13 16 -12 6 7 -11 21 -7 34 9 34 4 0
10 -3 12 -7z m668 -16 c-10 -9 -11 -8 -5 6 3 10 9 15 12 12 3 -3 0 -11 -7 -18z
m559 13 c0 -5 -4 -10 -8 -10 -5 0 -9 -18 -10 -40 -1 -31 3 -42 19 -50 11 -7
18 -18 15 -25 -7 -19 23 -43 33 -26 10 15 21 -18 21 -60 0 -20 -6 -28 -24 -31
-16 -3 -23 -1 -19 8 7 18 -10 24 -24 9 -10 -11 -8 -18 14 -34 31 -25 41 -26
65 -4 22 20 35 11 13 -10 -20 -20 -19 -28 3 -20 9 3 14 3 10 -2 -4 -4 -4 -13
2 -20 6 -7 2 -22 -13 -43 -23 -33 -43 -43 -33 -17 3 8 1 15 -4 15 -6 0 -10 -6
-11 -12 0 -10 -2 -10 -6 0 -10 24 -20 11 -17 -23 1 -19 1 -35 0 -35 -1 0 -13
11 -25 24 -21 22 -21 24 -4 20 15 -4 19 0 18 20 0 26 -10 41 -28 41 -8 0 -11
16 -10 43 2 37 -1 42 -20 42 -12 0 -27 4 -32 8 -16 10 -17 64 -3 74 10 6 10
10 -2 18 -13 8 -13 10 1 10 19 0 31 -23 23 -45 -4 -8 -2 -15 4 -15 11 0 9 97
-3 144 -6 21 -5 27 4 22 7 -5 11 0 11 13 0 14 6 21 20 21 11 0 20 -4 20 -10z
m-371 -9 c9 -6 10 -11 2 -15 -13 -8 -31 1 -31 15 0 11 11 11 29 0z m-74 -12
c12 -19 -5 -23 -22 -6 -16 16 -16 17 -1 17 9 0 20 -5 23 -11z m-150 -9 c-3 -5
-13 -10 -21 -10 -8 0 -14 5 -14 10 0 6 9 10 21 10 11 0 17 -4 14 -10z m520 -1
c11 -17 -1 -21 -15 -4 -8 9 -8 15 -2 15 6 0 14 -5 17 -11z m-74 -23 c9 21 8
23 14 -81 2 -49 1 -65 -6 -52 -14 23 -33 22 -26 -3 3 -11 -2 -25 -11 -32 -13
-11 -14 -11 -11 1 3 8 -10 29 -28 47 -39 39 -41 49 -12 64 11 7 18 14 15 17
-3 3 -12 1 -19 -5 -8 -7 -17 -9 -20 -5 -4 3 -7 -1 -7 -11 0 -9 -4 -15 -9 -12
-4 3 -8 -3 -7 -14 0 -11 -3 -19 -8 -19 -5 0 -12 -5 -17 -12 -4 -8 -11 -10 -15
-6 -4 4 1 16 10 26 10 11 15 24 12 30 -4 5 9 17 28 26 26 13 33 21 28 37 -4
17 -2 19 17 13 14 -4 21 -2 21 6 0 7 10 2 22 -11 21 -22 22 -22 29 -4z m720 4
c23 0 25 -15 4 -24 -9 -3 -12 -12 -8 -23 5 -15 2 -14 -15 3 -14 15 -19 29 -15
45 4 13 8 18 11 11 2 -6 12 -12 23 -12z m-947 -32 c-3 -4 -9 -6 -14 -3 -4 3
-10 -1 -13 -7 -3 -7 -4 -3 -4 10 1 12 5 22 10 22 4 0 5 6 2 13 -4 6 0 3 9 -7
8 -10 13 -23 10 -28z m-224 16 c0 -2 -7 -4 -15 -4 -8 0 -15 4 -15 10 0 5 7 7
15 4 8 -4 15 -8 15 -10z m173 -3 c9 -10 8 -11 -5 -6 -11 4 -18 2 -18 -4 0 -7
7 -14 16 -18 8 -3 14 -15 12 -27 -1 -11 1 -26 5 -32 7 -11 -7 -29 -28 -36 -5
-1 -9 -9 -9 -15 1 -7 -3 -13 -8 -13 -6 0 -5 -7 2 -15 9 -11 15 -13 20 -5 5 8
9 6 13 -5 4 -9 3 -13 -3 -10 -6 3 -11 0 -12 -7 0 -7 -2 -17 -3 -23 -2 -5 -3
-16 -4 -22 -2 -20 -18 -15 -24 7 -3 11 -1 20 5 20 5 0 6 5 2 11 -5 8 -12 4
-23 -10 -19 -25 -63 -23 -90 4 -15 15 -14 15 1 10 13 -5 21 0 27 16 15 35 45
70 63 72 8 2 23 10 32 20 16 15 16 18 2 33 -9 8 -14 20 -11 25 4 5 -1 9 -9 9
-19 0 -21 26 -3 33 18 6 36 2 50 -12z m1464 -3 c-3 -8 -6 -5 -6 6 -1 11 2 17
5 13 3 -3 4 -12 1 -19z m-2511 2 c21 -8 24 -14 16 -22 -20 -20 -13 -43 17 -56
16 -7 32 -20 35 -28 3 -8 2 -12 -4 -9 -11 7 -33 -31 -27 -48 2 -7 -3 -17 -12
-24 -19 -15 -34 -17 -26 -3 4 6 -7 10 -24 10 -23 0 -31 4 -30 18 0 10 3 12 6
4 2 -6 9 -10 14 -6 5 3 5 13 -1 24 -13 24 15 36 29 12 10 -16 10 -16 11 1 0
10 -19 37 -42 59 l-41 40 31 -5 c34 -6 43 8 20 31 -15 15 -8 15 28 2z m1387
-1 c9 6 12 1 13 -19 1 -29 1 -29 -28 -14 -25 13 -27 18 -17 31 9 10 15 11 17
4 3 -8 8 -9 15 -2z m-1293 -9 c0 -5 -5 -10 -11 -10 -5 0 -7 5 -4 10 3 6 8 10
11 10 2 0 4 -4 4 -10z m1740 -5 c7 -8 10 -22 6 -30 -5 -13 -8 -14 -20 -3 -8 7
-12 16 -9 21 2 4 -1 7 -7 7 -6 0 -8 5 -5 10 9 14 21 12 35 -5z m-122 -7 c16
-16 15 -29 -2 -22 -16 6 -30 34 -18 34 5 0 13 -5 20 -12z m-1438 -28 c0 -4 -6
-10 -13 -13 -8 -3 -14 4 -15 20 -2 22 0 24 13 13 8 -7 15 -16 15 -20z m646 -5
c1 -28 -2 -33 -13 -24 -7 6 -10 15 -7 20 3 5 1 9 -5 9 -6 0 -8 7 -5 15 11 28
29 15 30 -20z m1064 24 c13 -9 12 -10 -2 -5 -17 5 -22 -4 -19 -31 1 -7 -3 -13
-9 -13 -11 0 -14 43 -3 53 9 9 15 9 33 -4z m-1910 -9 c0 -5 -8 -10 -17 -10
-15 0 -16 2 -3 10 19 12 20 12 20 0z m114 4 c18 -7 12 -24 -8 -24 -7 0 -13 7
-13 15 0 17 0 17 21 9z m1372 -10 c-3 -9 -6 -21 -6 -27 0 -7 -4 -7 -9 2 -10
16 -4 41 11 41 6 0 7 -7 4 -16z m544 -16 c0 -4 -6 -5 -14 -2 -8 3 -12 12 -9
21 5 12 7 12 14 1 5 -7 9 -16 9 -20z m245 22 c3 -5 1 -10 -4 -10 -6 0 -11 5
-11 10 0 6 2 10 4 10 3 0 8 -4 11 -10z m-1195 -80 c6 0 8 -5 4 -12 -5 -8 -11
-6 -20 6 -8 11 -14 13 -19 7 -4 -8 -11 -6 -21 3 -18 18 -18 37 0 30 10 -4 12
2 9 23 -3 22 0 20 16 -14 11 -24 25 -43 31 -43z m-1055 50 c3 -5 2 -10 -4 -10
-5 0 -13 5 -16 10 -3 6 -2 10 4 10 5 0 13 -4 16 -10z m135 -12 c0 -11 -12 -10
-30 2 -12 7 -10 9 8 7 12 0 22 -5 22 -9z m1780 -8 c0 -5 -4 -10 -9 -10 -6 0
-13 5 -16 10 -3 6 1 10 9 10 9 0 16 -4 16 -10z m-1120 -35 c0 -5 -5 -3 -10 5
-5 8 -10 20 -10 25 0 6 5 3 10 -5 5 -8 10 -19 10 -25z m1497 13 c-3 -8 -6 -5
-6 6 -1 11 2 17 5 13 3 -3 4 -12 1 -19z m242 -16 c8 2 14 -9 16 -26 2 -15 13
-35 24 -43 12 -8 21 -21 21 -29 0 -8 7 -14 16 -14 14 0 14 -3 3 -16 -17 -20
-65 -45 -73 -37 -3 4 -6 -1 -6 -10 0 -9 -7 -17 -15 -17 -8 0 -15 7 -15 15 0 8
-4 15 -10 15 -5 0 -10 5 -10 10 0 6 11 8 25 4 27 -7 33 4 13 24 -9 9 -9 12 0
12 7 0 12 -4 12 -10 0 -5 5 -10 10 -10 20 0 11 48 -11 55 -12 4 -18 12 -15 21
3 8 9 21 12 29 4 10 0 15 -14 15 -12 0 -23 4 -26 9 -8 12 17 21 25 9 3 -5 12
-8 18 -6z m-214 -2 c3 -5 1 -10 -4 -10 -6 0 -11 5 -11 10 0 6 2 10 4 10 3 0 8
-4 11 -10z m-1307 -20 c12 -1 10 -5 -8 -15 -30 -17 -49 -3 -29 21 8 10 15 12
17 5 2 -6 11 -11 20 -11z m80 -2 c-2 -13 -7 -26 -13 -30 -6 -5 -5 -8 2 -8 7 0
10 -7 7 -15 -6 -14 5 -19 34 -16 17 3 15 -16 -3 -23 -8 -3 -15 -1 -15 4 0 6
-6 10 -13 10 -8 0 -18 10 -24 23 -13 27 -14 43 -3 40 5 -2 12 6 15 17 9 27 17
25 13 -2z m-288 2 c0 -5 -7 -10 -15 -10 -8 0 -15 5 -15 10 0 6 7 10 15 10 8 0
15 -4 15 -10z m1494 -11 c-3 -5 -14 -9 -26 -9 -17 0 -18 3 -8 14 12 15 44 10
34 -5z m-1724 -5 c0 -8 -4 -12 -10 -9 -5 3 -10 1 -10 -6 0 -7 -3 -9 -6 -6 -4
4 -1 13 6 22 16 19 20 19 20 -1z m560 6 c0 -5 -6 -10 -12 -10 -10 0 -9 -3 1
-9 10 -6 10 -10 1 -16 -16 -10 -23 0 -15 24 6 21 25 29 25 11z m1350 -17 c-1
-24 -2 -26 -11 -10 -5 9 -7 22 -4 27 10 17 15 11 15 -17z m-1210 6 c0 -6 7 -8
16 -5 13 5 15 1 10 -18 -4 -16 -1 -26 9 -30 8 -3 15 -16 14 -28 0 -15 -3 -18
-6 -8 -13 35 -25 41 -44 24 -17 -15 -19 -15 -25 0 -9 24 -27 20 -21 -5 4 -14
2 -19 -8 -16 -7 3 -18 0 -24 -6 -8 -8 -11 -8 -11 1 0 6 7 15 15 20 14 7 13 11
-5 32 -24 28 -24 25 0 27 11 1 20 -2 20 -8 0 -5 9 -9 19 -9 11 0 23 -4 26 -10
9 -15 25 -12 25 5 0 8 -5 14 -12 13 -6 -2 -14 5 -16 15 -2 9 1 17 7 17 6 0 11
-5 11 -11z m-260 -9 c0 -5 -5 -10 -11 -10 -5 0 -7 5 -4 10 3 6 8 10 11 10 2 0
4 -4 4 -10z m-1015 -14 c18 -13 18 -14 -4 -26 -16 -8 -21 -9 -16 -1 4 7 1 18
-5 26 -16 19 0 19 25 1z m615 -11 c0 -12 -19 -12 -23 0 -4 9 -1 12 9 8 7 -3
14 -7 14 -8z m413 -25 c5 0 7 7 3 15 -3 9 0 15 9 15 9 0 12 -6 8 -17 -4 -11
-3 -14 5 -9 10 6 17 -13 11 -26 -1 -2 11 -24 25 -50 24 -43 25 -48 9 -48 -10
0 -25 5 -33 10 -13 8 -13 11 -1 19 11 7 10 13 -5 35 -11 14 -27 26 -37 26 -10
0 -20 7 -23 15 -4 8 -12 15 -19 15 -8 0 -11 8 -8 19 5 20 5 20 26 0 11 -10 25
-19 30 -19z m1307 30 c0 -5 -5 -10 -11 -10 -5 0 -7 5 -4 10 3 6 8 10 11 10 2
0 4 -4 4 -10z m-2380 -15 c0 -8 -7 -15 -15 -15 -9 0 -15 -9 -15 -24 0 -19 -4
-23 -19 -19 -11 3 -22 12 -25 20 -4 11 -1 13 14 8 13 -4 20 -2 20 7 0 15 19
38 32 38 4 0 8 -7 8 -15z m1584 -28 c-9 -5 -21 -4 -30 4 -14 12 -14 14 2 26
14 10 19 10 30 -5 10 -14 10 -18 -2 -25z m224 25 c-2 -11 3 -26 11 -35 14 -18
21 -90 11 -108 -4 -6 -13 -1 -23 14 -14 22 -14 24 4 35 18 12 18 13 1 30 -9
11 -19 18 -22 16 -3 -1 -6 9 -6 22 -1 15 2 21 10 17 6 -4 5 1 -3 10 -12 15
-11 17 3 17 11 0 16 -7 14 -18z m604 6 c8 -24 -4 -58 -21 -57 -9 0 -11 3 -4 5
8 4 10 16 6 35 -5 28 11 43 19 17z m143 -8 c-3 -5 -12 -10 -18 -10 -7 0 -6 4
3 10 19 12 23 12 15 0z m-1845 -16 c0 -2 -9 -4 -20 -4 -11 0 -20 4 -20 9 0 5
9 7 20 4 11 -3 20 -7 20 -9z m1145 -3 c-3 -11 -1 -22 5 -26 5 -3 15 -15 21
-26 9 -18 8 -19 -10 -7 -21 13 -36 52 -26 68 10 17 17 11 10 -9z m-1085 -15
c0 -13 -6 -27 -12 -29 -8 -3 -6 -6 5 -6 9 -1 17 6 17 15 0 8 5 12 10 9 6 -3
10 -15 10 -26 0 -17 -17 -25 -45 -19 -5 1 -15 -7 -22 -16 -12 -16 -13 -16 -13
-1 0 24 31 97 41 97 5 0 9 -11 9 -24z m438 -11 c0 -14 -6 -25 -14 -25 -20 0
-27 19 -9 26 9 4 14 13 11 21 -3 8 -2 12 3 9 5 -3 9 -17 9 -31z m-638 10 c0
-8 -7 -15 -16 -15 -14 0 -14 3 -4 15 7 8 14 15 16 15 2 0 4 -7 4 -15z m60 -26
c0 -9 9 -24 19 -33 11 -10 17 -25 14 -34 -5 -11 -3 -13 7 -7 9 5 11 4 6 -4 -4
-6 0 -14 8 -17 9 -3 14 -10 11 -14 -10 -16 -56 16 -64 45 -4 17 -13 29 -18 28
-8 -1 -10 50 -4 77 3 10 21 -26 21 -41z m253 8 c-3 -5 -9 -3 -14 4 -4 7 -5 17
-2 22 3 5 9 3 14 -4 4 -7 5 -17 2 -22z m847 12 c0 -6 -4 -7 -10 -4 -5 3 -10
11 -10 16 0 6 5 7 10 4 6 -3 10 -11 10 -16z m-1040 1 c0 -5 -4 -10 -10 -10 -5
0 -10 5 -10 10 0 6 5 10 10 10 6 0 10 -4 10 -10z m137 -5 c0 -8 -4 -15 -9 -15
-4 0 -8 7 -8 15 0 8 4 15 8 15 5 0 9 -7 9 -15z m498 -15 c3 -11 11 -20 16 -20
5 0 9 -4 9 -10 0 -5 -6 -10 -13 -10 -8 0 -24 -11 -37 -25 -22 -24 -22 -25 -4
-25 11 0 25 5 32 12 9 9 12 7 12 -9 0 -16 -5 -20 -20 -16 -15 4 -20 0 -20 -16
0 -12 5 -32 11 -43 8 -15 8 -22 -1 -28 -10 -6 -8 -14 7 -34 11 -14 23 -23 26
-20 3 3 12 -3 19 -15 7 -12 23 -21 36 -21 15 0 21 4 16 12 -5 8 -2 9 9 5 12
-5 17 -1 17 12 0 10 -7 22 -15 25 -12 4 -13 10 -5 25 11 21 4 51 -12 51 -6 0
-4 -7 3 -17 12 -14 12 -16 -1 -11 -10 3 -14 15 -12 34 2 22 0 26 -8 14 -8 -12
-10 -11 -10 8 0 12 -1 25 -2 30 -2 4 10 7 25 8 32 1 57 -27 50 -57 -3 -10 -1
-19 3 -20 32 -3 49 -10 56 -24 5 -8 19 -24 30 -35 21 -19 15 -26 -15 -21 -5 1
-6 -3 -2 -9 3 -5 1 -10 -6 -10 -7 0 -9 -10 -5 -30 3 -16 2 -30 -2 -30 -5 0
-12 -19 -18 -42 -6 -29 -16 -46 -33 -54 -13 -7 -34 -24 -46 -38 -19 -22 -27
-25 -47 -17 -14 5 -31 6 -39 0 -10 -6 -5 -10 19 -15 32 -7 35 -16 7 -20 -8 -1
-15 1 -15 6 0 4 -11 8 -25 8 -26 0 -34 -13 -12 -21 6 -3 1 -6 -12 -6 -17 -1
-22 3 -17 14 4 10 -1 15 -15 15 -12 0 -36 7 -55 16 -59 28 -58 113 2 144 16 8
37 24 47 35 10 11 16 14 12 8 -4 -9 -1 -11 9 -7 21 8 20 21 -4 46 -11 12 -20
26 -20 31 0 5 9 11 20 14 22 6 26 18 10 28 -17 10 -11 25 7 18 14 -6 13 -2 -5
21 -12 16 -19 33 -15 39 3 6 1 7 -5 3 -7 -4 -12 -2 -12 3 0 6 -4 11 -10 11 -5
0 -10 -11 -10 -25 0 -20 -6 -27 -30 -31 -16 -4 -28 -11 -27 -18 1 -6 -4 -10
-10 -8 -19 3 -16 -16 7 -40 11 -12 20 -27 19 -32 0 -6 -3 -5 -6 2 -2 6 -9 10
-13 7 -11 -7 -50 16 -50 28 0 4 5 5 11 2 6 -4 5 2 -2 13 -7 12 -16 19 -20 17
-3 -3 -4 7 -1 20 2 14 8 22 13 19 16 -9 49 16 50 39 0 15 2 17 6 7 6 -16 23
-30 35 -30 4 0 5 7 2 15 -4 8 1 17 9 21 12 4 14 11 6 31 -12 32 -12 33 9 33 9
0 26 7 36 15 27 20 43 19 51 -5z m-265 -3 c0 -5 -7 -7 -14 -4 -10 4 -13 1 -10
-7 3 -8 1 -17 -4 -20 -13 -8 -36 20 -27 33 7 13 55 10 55 -2z m100 -9 c0 -16
-3 -19 -11 -11 -6 6 -8 16 -5 22 11 17 16 13 16 -11z m-1130 8 c0 -3 -4 -8
-10 -11 -5 -3 -10 -1 -10 4 0 6 5 11 10 11 6 0 10 -2 10 -4z m895 -6 c4 -6 11
-8 16 -5 5 3 6 0 3 -8 -3 -8 2 -20 11 -27 13 -11 18 -10 30 6 13 18 14 18 23
-6 5 -14 7 -32 5 -40 -3 -8 6 -2 19 14 l24 28 12 -27 c7 -14 8 -24 3 -21 -5 4
-16 3 -25 0 -13 -5 -14 -10 -5 -20 16 -20 0 -36 -30 -30 -24 6 -25 5 -8 -8 13
-10 15 -15 5 -18 -7 -3 -22 7 -33 20 -13 18 -16 27 -7 30 7 2 10 8 7 13 -3 5
-14 3 -25 -3 -26 -16 -36 -4 -22 28 7 15 8 23 2 19 -6 -3 -13 2 -16 12 -3 10
-10 26 -15 36 -7 12 -5 17 5 17 8 0 18 -5 21 -10z m880 0 c3 -5 1 -10 -4 -10
-6 0 -11 5 -11 10 0 6 2 10 4 10 3 0 8 -4 11 -10z m571 -27 c-6 -15 -9 -15
-16 -3 -6 9 -5 17 3 22 16 10 21 2 13 -19z m237 -33 c-5 -35 -3 -39 11 -34 17
6 23 -11 7 -20 -5 -3 -7 -15 -4 -26 4 -16 2 -19 -11 -14 -10 4 -16 18 -16 40
0 22 -6 37 -19 43 -10 6 -21 8 -23 5 -3 -3 -8 2 -11 11 -5 10 0 15 13 15 11 0
20 -5 20 -11 0 -5 5 -7 10 -4 6 3 10 15 10 26 0 11 4 18 9 15 5 -3 7 -24 4
-46z m-749 25 c-6 -16 -24 -21 -24 -7 0 11 11 22 21 22 5 0 6 -7 3 -15z m-659
-5 c3 -5 1 -10 -4 -10 -6 0 -11 5 -11 10 0 6 2 10 4 10 3 0 8 -4 11 -10z m271
-16 c-3 -7 -1 -16 4 -19 5 -3 6 -13 3 -22 -6 -14 -7 -14 -18 1 -14 18 -8 69 7
60 5 -3 7 -12 4 -20z m-868 9 c-4 -15 23 -53 38 -53 8 0 13 -4 9 -10 -3 -5
-19 -8 -36 -7 -22 1 -31 8 -36 25 -5 21 -6 22 -20 5 -14 -17 -14 -17 -9 0 3
10 6 23 6 28 0 6 4 8 9 4 5 -3 12 -1 16 5 7 12 26 14 23 3z m772 -3 c-8 -5
-19 -10 -25 -10 -5 0 -3 5 5 10 8 5 20 10 25 10 6 0 3 -5 -5 -10z m517 -27 c8
-12 10 -24 5 -27 -12 -7 -54 33 -46 45 8 14 25 7 41 -18z m800 13 c-3 -8 -2
-16 3 -18 4 -2 10 -14 12 -28 1 -14 8 -28 13 -33 6 -4 3 -12 -7 -21 -10 -7
-15 -16 -12 -19 3 -3 0 -12 -7 -19 -19 -21 -61 21 -57 56 4 26 18 48 18 28 0
-6 7 -9 15 -6 11 5 12 10 4 26 -12 22 -6 48 12 48 6 0 9 -6 6 -14z m-2399 -8
c14 -14 16 -42 2 -33 -14 9 -32 45 -22 45 4 0 13 -5 20 -12z m2089 -14 c-9 -9
-28 6 -21 18 4 6 10 6 17 -1 6 -6 8 -13 4 -17z m50 2 c-10 -8 -15 -20 -11 -30
5 -12 2 -15 -10 -10 -23 9 -20 29 7 42 30 15 35 14 14 -2z m-2081 -11 c3 -8
-1 -22 -10 -30 -9 -9 -16 -13 -16 -8 0 4 -3 18 -6 31 -5 16 -2 22 10 22 9 0
19 -7 22 -15z m1664 5 c0 -5 -4 -10 -9 -10 -6 0 -13 5 -16 10 -3 6 1 10 9 10
9 0 16 -4 16 -10z m-1875 -10 c3 -6 -1 -13 -10 -16 -19 -8 -30 0 -20 15 8 14
22 14 30 1z m39 -6 c3 -8 2 -12 -4 -9 -6 3 -10 10 -10 16 0 14 7 11 14 -7z
m46 12 c0 -3 -4 -8 -10 -11 -5 -3 -10 -1 -10 4 0 6 5 11 10 11 6 0 10 -2 10
-4z m1617 -28 c-3 -11 -3 -18 0 -15 9 10 31 -17 25 -31 -4 -11 -6 -11 -14 0
-5 8 -6 2 -2 -17 3 -16 6 -38 7 -47 2 -22 37 -19 37 4 0 10 5 18 10 18 13 0
13 -6 -5 -40 -8 -16 -14 -35 -13 -41 2 -6 -2 -13 -9 -16 -7 -3 -9 3 -6 18 4
14 2 20 -4 16 -6 -4 -13 0 -17 8 -3 8 -11 15 -18 15 -8 0 -9 -3 -3 -8 14 -10
16 -112 2 -112 -8 0 -8 -3 0 -11 13 -13 47 -4 39 9 -3 5 1 18 9 28 14 18 15
17 9 -9 -5 -23 -3 -29 15 -34 28 -7 21 -29 -7 -25 -13 2 -22 -2 -22 -9 0 -7
-3 -9 -7 -6 -3 4 -12 -1 -20 -11 -10 -13 -13 -14 -11 -2 2 8 -3 14 -10 12 -8
-1 -11 2 -8 7 4 5 2 12 -3 15 -5 3 -14 -8 -20 -26 -9 -24 -14 -29 -23 -20 -9
9 -9 15 0 24 8 8 8 17 1 31 -8 13 -8 22 0 30 8 8 11 8 11 -1 0 -7 5 -12 10
-12 6 0 10 7 10 15 0 8 -6 15 -14 15 -8 0 -27 15 -42 33 -15 17 -30 30 -33 27
-10 -7 0 -33 17 -46 15 -12 15 -12 -3 -10 -23 3 -49 46 -35 60 5 5 3 15 -6 23
-22 22 -18 63 6 63 11 0 20 5 20 11 0 5 5 7 10 4 6 -3 7 -17 4 -30 -3 -12 -1
-26 5 -29 6 -4 11 -16 11 -27 0 -10 5 -19 10 -19 6 0 10 -7 10 -15 0 -8 3 -15
8 -15 11 0 38 20 27 20 -5 0 -4 4 4 9 12 8 12 12 -2 25 -20 20 -27 20 -27 1 0
-8 -5 -15 -11 -15 -6 0 -9 7 -5 15 3 8 1 15 -4 15 -5 0 -8 15 -8 33 1 17 3 26
5 20 3 -7 13 -13 24 -13 14 0 19 7 19 25 0 14 7 28 16 32 10 4 14 13 10 28 -6
24 1 38 16 29 5 -4 7 -15 5 -26z m-1557 -8 c0 -10 5 -20 11 -22 7 -2 7 -11 0
-28 -5 -14 -10 -18 -11 -10 0 13 -1 13 -10 0 -7 -11 -8 -5 -3 19 4 24 3 32 -5
27 -8 -5 -10 -2 -6 8 3 9 1 16 -6 16 -6 0 -9 4 -5 10 9 15 35 0 35 -20z m1220
21 c0 -5 -7 -12 -16 -15 -14 -5 -15 -4 -4 9 14 17 20 19 20 6z m-1442 -23 c2
-4 8 -6 13 -2 10 6 13 -19 3 -29 -10 -9 -86 32 -79 43 7 11 58 2 63 -12z
m1022 11 c0 -15 -18 -19 -23 -6 -3 8 1 14 9 14 8 0 14 -4 14 -8z m693 -11 c3
-10 1 -16 -4 -12 -5 3 -9 -2 -9 -10 0 -10 -6 -13 -16 -9 -10 4 -12 8 -4 13 6
3 8 13 5 22 -4 9 0 15 9 15 8 0 17 -9 19 -19z m-1018 -10 c32 -28 32 -38 -2
-38 -43 0 -57 13 -44 39 14 26 15 26 46 -1z m-591 3 c7 -11 -3 -41 -14 -41 -4
0 -7 11 -7 25 0 25 11 33 21 16z m434 -8 c-2 -10 4 -25 14 -34 16 -14 15 -15
-17 -15 -20 1 -37 7 -40 15 -3 9 0 11 10 7 10 -3 15 1 15 13 0 16 8 31 17 31
3 0 3 -8 1 -17z m-708 -26 c1 -21 1 -22 15 -3 17 22 55 29 61 11 3 -7 16 -10
30 -7 20 4 24 0 24 -21 0 -21 -4 -25 -26 -22 -23 2 -25 0 -20 -24 l6 -26 -15
25 c-8 15 -14 19 -15 10 0 -10 -5 -7 -16 8 -8 12 -21 22 -29 22 -15 0 -35 29
-35 50 0 6 5 8 10 5 6 -3 10 -16 10 -28z m235 23 c3 -5 1 -10 -4 -10 -6 0 -11
5 -11 10 0 6 2 10 4 10 3 0 8 -4 11 -10z m709 -5 c3 -8 1 -15 -4 -15 -6 0 -10
7 -10 15 0 8 2 15 4 15 2 0 6 -7 10 -15z m369 -20 c-15 -11 -19 -11 -26 1 -13
22 1 36 24 23 20 -10 20 -11 2 -24z m1271 10 c-4 -15 -2 -25 5 -25 6 0 11 5
11 11 0 5 5 7 11 3 8 -5 8 -9 -1 -14 -9 -6 -9 -9 -1 -15 9 -5 9 -11 -1 -23
-12 -14 -9 -15 20 -9 17 4 32 2 32 -2 0 -5 13 -12 30 -16 16 -4 33 -11 36 -17
5 -7 2 -8 -6 -3 -20 12 -30 -15 -12 -36 9 -10 18 -16 22 -14 3 2 4 -12 2 -32
l-4 -35 36 6 c47 8 47 -15 1 -40 -16 -9 -24 -7 -43 11 -12 11 -24 31 -27 44
-2 13 -12 29 -22 36 -15 11 -19 11 -24 -4 -4 -9 -15 -23 -25 -31 -16 -12 -17
-12 -6 0 14 17 16 34 2 25 -19 -12 -10 16 13 39 19 19 21 25 9 35 -7 7 -22 11
-33 8 -15 -4 -19 0 -19 19 0 24 -19 35 -21 12 0 -7 -7 1 -14 17 -8 17 -14 25
-15 18 0 -7 -7 -10 -15 -7 -13 5 -12 10 7 29 19 18 35 28 56 34 1 1 0 -10 -4
-24z m-2775 2 c8 -10 7 -14 -4 -14 -8 0 -15 6 -15 14 0 7 2 13 4 13 2 0 9 -6
15 -13z m2391 -38 c0 -9 -7 -20 -16 -23 -23 -9 -34 -7 -34 4 0 6 7 10 16 10
13 0 15 7 10 33 -5 30 -5 31 9 13 8 -11 15 -27 15 -37z m490 41 c0 -5 -2 -10
-4 -10 -3 0 -8 5 -11 10 -3 6 -1 10 4 10 6 0 11 -4 11 -10z m-2115 -30 c3 -5
1 -10 -4 -10 -6 0 -11 5 -11 10 0 6 2 10 4 10 3 0 8 -4 11 -10z m1410 -9 c-3
-6 -11 -8 -17 -5 -6 4 -5 9 3 15 16 10 23 4 14 -10z m-2146 -18 c0 -16 -3 -23
-5 -16 -3 7 -12 9 -20 6 -14 -5 -20 18 -7 30 16 16 33 5 32 -20z m111 -16 c0
-5 -4 -5 -10 -2 -5 3 -10 14 -10 23 0 15 2 15 10 2 5 -8 10 -19 10 -23z m503
7 c-23 -17 -46 -18 -40 -1 2 6 9 12 15 12 5 0 14 3 18 7 4 4 11 5 16 2 5 -3 1
-12 -9 -20z m580 6 c-7 -25 -19 -34 -28 -20 -6 10 14 39 27 40 3 0 4 -9 1 -20z
m1056 -10 c12 0 15 -13 5 -23 -4 -3 -15 4 -25 16 -14 16 -17 17 -13 5 3 -10 1
-18 -5 -18 -13 0 -14 11 -4 36 6 15 7 16 18 0 7 -9 17 -16 24 -16z m674 1 c-4
-16 -8 -19 -14 -10 -4 7 -3 19 3 26 14 18 19 12 11 -16z m-2725 -14 c15 -43
15 -48 -3 -41 -11 5 -13 2 -9 -10 7 -17 4 -19 -20 -10 -13 5 -14 8 -1 20 9 10
12 25 8 44 -8 41 10 38 25 -3z m146 -3 c0 -25 -4 -29 -30 -30 -22 -1 -30 4
-30 16 0 10 6 16 13 13 7 -3 13 -10 13 -17 0 -6 5 -4 10 4 5 8 7 23 4 34 -4
12 -2 17 7 14 7 -2 13 -18 13 -34z m156 32 c0 -3 -4 -8 -10 -11 -5 -3 -10 -1
-10 4 0 6 5 11 10 11 6 0 10 -2 10 -4z m60 -6 c0 -5 -4 -10 -10 -10 -5 0 -10
5 -10 10 0 6 5 10 10 10 6 0 10 -4 10 -10z m1366 -13 c6 -13 7 -32 4 -43 -7
-20 -7 -21 -26 49 -8 25 9 21 22 -6z m-241 3 c3 -5 -1 -10 -10 -10 -9 0 -13 5
-10 10 3 6 8 10 10 10 2 0 7 -4 10 -10z m615 0 c0 -5 -2 -10 -4 -10 -3 0 -8 5
-11 10 -3 6 -1 10 4 10 6 0 11 -4 11 -10z m-1260 -15 c12 7 33 -32 25 -45 -4
-6 -13 -7 -22 -1 -11 6 -21 4 -30 -4 -17 -17 -17 -25 1 -25 8 0 16 -7 20 -15
3 -8 11 -15 18 -14 10 0 10 2 1 6 -23 9 -13 25 12 21 14 -3 25 -1 25 3 0 5 11
9 25 9 29 0 30 -3 9 -35 -12 -19 -13 -25 -3 -25 7 0 9 -3 6 -6 -4 -4 -14 -1
-22 6 -14 11 -17 10 -22 -8 -3 -12 -9 -20 -13 -17 -5 3 -11 1 -15 -5 -3 -5 2
-10 11 -10 16 0 16 -1 -2 -14 -17 -13 -20 -12 -25 7 -3 12 -1 28 5 36 8 11 8
13 0 8 -7 -4 -23 9 -38 31 -27 39 -33 58 -17 47 5 -3 12 -1 16 5 3 5 1 10 -4
10 -6 0 -11 5 -11 11 0 6 9 8 21 4 18 -6 20 -4 15 17 -3 12 -3 17 0 10 3 -6
10 -10 14 -7z m-885 -5 c3 -5 1 -10 -4 -10 -6 0 -11 5 -11 10 0 6 2 10 4 10 3
0 8 -4 11 -10z m370 0 c3 -5 -1 -10 -10 -10 -9 0 -13 5 -10 10 3 6 8 10 10 10
2 0 7 -4 10 -10z m25 -10 c-6 -11 -15 -20 -20 -20 -6 0 -2 9 7 20 10 11 19 20
21 20 1 0 -2 -9 -8 -20z m560 10 c13 -8 13 -10 -2 -10 -9 0 -20 5 -23 10 -8
13 5 13 25 0z m1278 -15 c-3 -3 -9 2 -12 12 -6 14 -5 15 5 6 7 -7 10 -15 7
-18z m297 11 c8 4 15 1 15 -5 0 -6 -9 -11 -20 -11 -11 0 -20 -5 -20 -12 0 -6
-9 -3 -20 7 -27 25 -25 36 5 25 14 -5 32 -7 40 -4z m-2065 -29 c0 -5 -4 -5
-10 -2 -5 3 -10 14 -10 23 0 15 2 15 10 2 5 -8 10 -19 10 -23z m1561 10 c-10
-9 -11 -8 -5 6 3 10 9 15 12 12 3 -3 0 -11 -7 -18z m309 -8 c0 -5 -6 -9 -13
-9 -8 0 -14 6 -14 14 0 8 6 12 14 9 7 -3 13 -9 13 -14z m235 11 c3 -5 1 -10
-4 -10 -6 0 -11 5 -11 10 0 6 2 10 4 10 3 0 8 -4 11 -10z m259 1 c3 -5 -1 -12
-10 -15 -22 -9 -24 -8 -24 9 0 16 25 21 34 6z m-1651 -7 c7 -8 -17 -34 -32
-34 -6 0 -11 5 -11 10 0 6 7 10 16 10 8 0 12 5 9 10 -7 11 8 14 18 4z m78 -18
c-6 -7 -8 -22 -4 -34 3 -13 1 -22 -6 -22 -6 0 -11 5 -11 10 0 6 -7 10 -15 10
-8 0 -15 5 -15 10 0 6 7 13 15 16 8 4 15 12 15 20 0 8 6 11 15 8 11 -5 12 -10
6 -18z m-301 10 c0 -3 -4 -8 -10 -11 -5 -3 -10 -1 -10 4 0 6 5 11 10 11 6 0
10 -2 10 -4z m1650 -49 l0 -30 -25 23 c-14 13 -25 27 -25 30 0 4 11 8 25 8 21
0 25 -5 25 -31z m-1850 7 c0 -17 -11 -18 -33 -1 -16 11 -15 12 8 13 15 1 25
-3 25 -12z m-237 -14 c-3 -11 -10 -23 -16 -27 -5 -3 -8 -2 -5 3 3 5 8 17 11
27 9 24 16 22 10 -3z m630 0 c-3 -11 -9 -17 -14 -15 -10 7 -1 35 11 35 5 0 6
-9 3 -20z m-1159 -11 c-8 -14 -44 -17 -44 -4 0 7 10 12 24 11 13 0 22 -4 20
-7z m76 -8 c0 -5 -6 -16 -14 -23 -8 -8 -12 -28 -10 -48 2 -19 1 -29 -2 -22 -3
6 -17 12 -30 12 -15 0 -24 6 -24 15 0 18 16 20 23 3 3 -8 6 -6 6 5 1 10 -9 22
-21 27 l-23 9 23 0 c12 1 22 6 22 12 0 5 4 8 9 4 5 -3 12 -1 16 5 8 13 25 13
25 1z m132 -13 c-7 -7 -12 -8 -12 -2 0 6 3 14 7 17 3 4 9 5 12 2 2 -3 -1 -11
-7 -17z m169 -35 c-9 -16 -10 -15 -11 8 0 14 3 29 8 33 12 12 14 -22 3 -41z
m1489 8 c3 -2 -3 -1 -13 2 -13 5 -20 0 -27 -18 -12 -32 -35 -34 -26 -2 3 12 6
30 6 40 0 17 1 17 28 0 15 -9 29 -19 32 -22z m546 2 c-6 -6 -36 9 -36 18 0 5
9 4 20 -3 10 -7 18 -14 16 -15z m-1546 -19 c0 -3 -7 -1 -15 6 -8 7 -15 17 -15
22 0 5 7 3 15 -6 8 -8 15 -18 15 -22z m1825 26 c11 -5 15 -9 8 -9 -6 -1 -18
-4 -26 -7 -8 -3 -17 2 -20 10 -7 18 7 20 38 6z m-325 -10 c0 -5 -4 -10 -10
-10 -5 0 -10 5 -10 10 0 6 5 10 10 10 6 0 10 -4 10 -10z m193 -16 c-8 -4 -9
-13 -4 -27 5 -12 9 -26 10 -32 1 -10 5 -11 36 -14 28 -2 15 -21 -14 -21 -35 0
-49 16 -49 55 0 35 5 45 21 44 9 0 9 -2 0 -5z m-2248 -14 c3 -5 -1 -10 -10
-10 -9 0 -13 5 -10 10 3 6 8 10 10 10 2 0 7 -4 10 -10z m395 0 c0 -5 -5 -10
-11 -10 -5 0 -7 5 -4 10 3 6 8 10 11 10 2 0 4 -4 4 -10z m2014 -7 c-5 -5 -12
-12 -16 -18 -4 -6 -8 -2 -8 8 0 9 7 17 17 17 9 0 12 -3 7 -7z m-336 -38 c-4
-20 -1 -22 19 -19 25 5 32 -10 8 -20 -8 -3 -15 -10 -15 -16 0 -6 5 -8 10 -5 6
3 10 0 10 -7 0 -10 -10 -13 -35 -10 -26 3 -35 9 -35 23 0 10 5 19 11 19 7 0 9
9 6 21 -3 11 -3 27 0 35 8 22 25 4 21 -21z m53 2 c-8 -8 -11 -7 -11 4 0 20 13
34 18 19 3 -7 -1 -17 -7 -23z m-2001 9 c0 -8 -7 -17 -16 -20 -13 -5 -14 -4 -6
7 7 8 9 17 5 20 -3 4 -1 7 5 7 7 0 12 -6 12 -14z m1383 -26 c-3 -11 -10 -20
-15 -20 -5 0 -6 -5 -2 -12 4 -7 3 -8 -5 -4 -6 4 -9 11 -6 16 3 4 -2 11 -11 14
-8 3 -12 10 -9 16 4 6 11 8 16 5 5 -4 9 1 9 11 0 13 3 14 14 5 8 -7 12 -21 9
-31z m187 24 c0 5 6 3 13 -3 8 -6 17 -8 21 -4 4 4 4 0 0 -10 -5 -13 -10 -15
-19 -7 -11 9 -12 7 -8 -9 3 -12 9 -18 14 -15 5 3 9 -2 9 -10 0 -18 -29 -11
-47 12 -7 9 -16 12 -20 9 -3 -4 3 -16 15 -28 25 -22 22 -39 -6 -34 -9 1 -24
-1 -33 -6 -13 -6 -18 0 -27 29 -8 26 -8 38 0 43 6 4 7 12 3 19 -5 9 -4 11 3 6
7 -4 12 -1 12 6 0 10 2 10 9 0 12 -20 21 -19 33 2 8 15 12 16 19 5 5 -8 9 -10
9 -5z m93 -11 c-4 -11 -3 -14 5 -9 7 4 12 13 12 20 0 7 6 13 13 13 20 0 8 -47
-12 -48 -9 0 -24 -2 -33 -4 -12 -2 -15 2 -11 13 5 11 3 13 -8 7 -8 -4 -5 1 6
12 22 23 37 21 28 -4z m224 -51 c-4 -2 -14 2 -23 8 -13 11 -13 15 1 30 8 9 16
23 16 31 1 8 5 -4 8 -26 3 -22 2 -42 -2 -43z m-1437 37 c0 -5 -4 -9 -10 -9 -5
0 -10 7 -10 16 0 8 5 12 10 9 6 -3 10 -10 10 -16z m1020 11 c0 -5 -7 -10 -16
-10 -8 0 -12 5 -9 10 3 6 10 10 16 10 5 0 9 -4 9 -10z m620 0 c0 -5 -2 -10 -4
-10 -3 0 -8 5 -11 10 -3 6 -1 10 4 10 6 0 11 -4 11 -10z m248 -38 c-10 -12
-10 -14 0 -8 13 8 14 -5 2 -44 -7 -24 -7 -23 -15 13 -4 20 -12 40 -17 43 -14
9 12 24 29 17 11 -4 11 -8 1 -21z m-2046 -4 c-7 -7 -12 -8 -12 -2 0 6 3 14 7
17 3 4 9 5 12 2 2 -3 -1 -11 -7 -17z m1058 -29 c0 -8 -7 -5 -19 7 -10 10 -16
22 -14 27 6 10 33 -18 33 -34z m394 15 c7 -27 1 -43 -10 -31 -10 10 -13 57 -4
57 4 0 11 -12 14 -26z m654 -29 c-1 -24 -6 -41 -11 -38 -4 2 -7 12 -6 21 3 30
-1 37 -11 22 -8 -13 -10 -13 -10 2 0 29 11 47 26 41 9 -3 13 -19 12 -48z
m-1713 26 c-3 -6 -11 -11 -16 -11 -5 0 -4 6 3 14 14 16 24 13 13 -3z m746 -8
c-12 -20 -14 -14 -5 12 4 9 9 14 11 11 3 -2 0 -13 -6 -23z m39 0 c0 -19 -13
-9 -16 12 -1 8 2 13 7 9 5 -3 9 -12 9 -21z m399 1 c9 -20 9 -25 0 -22 -14 5
-32 48 -20 48 4 0 13 -12 20 -26z m411 5 c0 -5 -11 -9 -25 -9 -14 0 -25 6 -25
14 0 9 8 12 25 8 14 -2 25 -8 25 -13z m-2722 -7 c-5 -19 6 -34 35 -45 9 -3 17
-15 17 -26 0 -11 6 -22 13 -24 6 -3 0 -6 -15 -6 -16 -1 -28 -5 -28 -11 0 -5
-4 -10 -9 -10 -4 0 -6 10 -4 23 3 17 -2 25 -26 34 -18 6 -29 7 -25 1 3 -5 -2
-8 -12 -6 -13 2 -19 -3 -18 -14 1 -10 -4 -14 -13 -11 -10 4 -11 9 -4 16 14 14
14 30 1 22 -5 -3 -10 -1 -10 5 0 6 11 16 25 22 14 6 25 18 25 25 0 8 4 12 8 9
4 -2 14 -1 22 5 21 12 23 11 18 -9z m762 10 c0 -4 -5 -13 -12 -20 -17 -17 -28
-15 -28 4 0 8 5 12 10 9 6 -3 10 -1 10 4 0 6 5 11 10 11 6 0 10 -4 10 -8z
m1830 -2 c0 -5 -7 -7 -15 -4 -8 4 -15 8 -15 10 0 2 7 4 15 4 8 0 15 -4 15 -10z
m-2415 -37 c-2 -20 -10 -42 -17 -49 -11 -11 -12 -5 -10 36 3 33 8 50 17 50 9
0 12 -11 10 -37z m1900 28 c3 -5 1 -12 -5 -16 -5 -3 -10 1 -10 9 0 18 6 21 15
7z m75 -17 c0 -8 -4 -12 -10 -9 -5 3 -10 13 -10 21 0 8 5 12 10 9 6 -3 10 -13
10 -21z m-800 13 c0 -1 4 -17 9 -35 6 -19 6 -30 1 -27 -5 3 -18 1 -29 -4 -16
-9 -20 -7 -25 15 -5 19 -2 30 11 40 16 12 33 18 33 11z m209 -48 c-5 -10 -17
-19 -26 -19 -13 0 -14 3 -5 12 7 7 12 21 12 31 0 16 3 17 15 7 11 -9 12 -17 4
-31z m300 0 c1 -4 -6 -9 -13 -12 -10 -4 -13 -1 -9 9 3 7 0 14 -6 14 -6 0 -11
5 -11 11 0 5 5 7 10 4 6 -3 10 0 11 7 0 12 17 -17 18 -33z m601 31 c0 -5 -5
-10 -11 -10 -5 0 -7 5 -4 10 3 6 8 10 11 10 2 0 4 -4 4 -10z m-2153 -32 c-3
-7 -5 -2 -5 12 0 14 2 19 5 13 2 -7 2 -19 0 -25z m550 26 c-3 -3 -12 -4 -19
-1 -8 3 -5 6 6 6 11 1 17 -2 13 -5z m1054 -15 c6 -12 14 -18 18 -13 10 15 31
15 31 0 0 -25 -43 -23 -67 2 -27 27 -28 32 -8 32 8 0 19 -10 26 -21z m159 -23
c0 -12 -5 -7 -19 24 -11 24 -11 24 3 6 9 -11 16 -24 16 -30z m320 13 c3 -13
11 -24 18 -25 33 -3 34 -4 22 -19 -10 -13 -8 -20 14 -42 20 -19 26 -35 25 -57
-4 -42 -11 -54 -19 -30 -4 10 -2 25 4 33 8 11 8 13 -1 7 -8 -4 -13 -2 -13 4 0
6 -5 8 -12 4 -10 -6 -10 -4 0 8 11 14 10 18 -4 26 -11 6 -15 17 -11 32 4 16 2
20 -9 16 -8 -3 -23 3 -33 13 -11 11 -27 21 -38 24 -14 4 -13 5 6 6 15 1 21 6
18 15 -4 9 0 13 11 12 9 -2 19 -14 22 -27z m242 -4 c4 -16 1 -22 -9 -18 -7 3
-13 10 -13 17 0 6 -7 2 -15 -8 -8 -10 -12 -22 -10 -27 7 -11 -33 -24 -75 -24
-28 0 -35 -4 -34 -18 2 -17 1 -17 -17 -1 -14 13 -16 21 -8 36 8 15 13 17 25 7
11 -9 14 -8 14 3 0 16 32 20 41 5 4 -6 16 -3 30 7 13 9 20 16 16 16 -4 0 1 8
11 18 21 23 39 18 44 -13z m-372 -11 c0 -8 -9 -14 -19 -14 -11 0 -27 -7 -35
-16 -10 -9 -24 -13 -35 -9 -28 8 -15 33 14 29 14 -1 27 2 31 7 3 5 10 7 15 4
5 -4 9 1 9 10 0 9 5 13 10 10 6 -3 10 -13 10 -21z m-840 6 c0 -5 -5 -10 -11
-10 -5 0 -7 5 -4 10 3 6 8 10 11 10 2 0 4 -4 4 -10z m-593 -22 c-3 -8 -6 -5
-6 6 -1 11 2 17 5 13 3 -3 4 -12 1 -19z m1477 -33 c1 -31 -3 -45 -12 -45 -8 0
-10 5 -6 12 5 7 2 9 -9 5 -9 -3 -21 1 -29 11 -12 15 -11 16 4 3 15 -11 19 -11
24 4 4 9 8 26 9 38 3 30 4 31 12 24 3 -4 7 -27 7 -52z m456 19 c0 -10 -5 -14
-16 -10 -8 3 -13 2 -10 -3 3 -5 -1 -14 -9 -21 -13 -11 -14 -10 -9 6 15 41 44
60 44 28z m-2910 -4 c0 -5 -2 -10 -4 -10 -3 0 -8 5 -11 10 -3 6 -1 10 4 10 6
0 11 -4 11 -10z m30 6 c0 -3 -4 -8 -10 -11 -5 -3 -10 -1 -10 4 0 6 5 11 10 11
6 0 10 -2 10 -4z m420 -6 c0 -5 -2 -10 -4 -10 -3 0 -8 5 -11 10 -3 6 -1 10 4
10 6 0 11 -4 11 -10z m1630 0 c0 -5 -4 -10 -10 -10 -5 0 -10 5 -10 10 0 6 5
10 10 10 6 0 10 -4 10 -10z m716 -45 c10 -22 14 -47 10 -67 -7 -42 5 -66 24
-43 21 25 39 18 37 -14 -1 -19 -6 -26 -11 -21 -6 6 -16 4 -26 -5 -14 -12 -19
-12 -43 0 -25 13 -27 12 -27 -8 l0 -21 -16 22 c-15 21 -11 48 6 37 21 -13 36
7 35 48 -3 59 -15 94 -26 76 -6 -10 -9 -8 -9 9 0 34 27 27 46 -13z m-2592 8
c-18 -6 -3 -65 17 -70 21 -6 25 -18 9 -28 -5 -3 -10 -1 -10 4 0 6 -9 11 -21
11 -11 0 -30 5 -42 11 -21 12 -21 12 -3 -15 10 -15 15 -30 12 -34 -3 -3 -6 0
-6 6 0 7 -6 12 -14 12 -9 0 -12 9 -9 33 3 17 5 37 6 44 1 16 19 12 34 -7 10
-12 11 -11 6 9 -6 22 14 48 27 34 3 -3 0 -7 -6 -10z m770 0 c-10 -7 -22 -13
-27 -13 -5 0 -6 -7 -3 -16 6 -15 4 -15 -10 -3 -15 12 -14 15 4 29 11 9 28 17
37 17 16 0 16 -1 -1 -14z m1734 -18 c-4 -17 -1 -25 9 -25 11 0 11 -3 2 -13
-20 -21 -49 -18 -50 4 -1 10 -2 25 -3 32 -1 6 7 11 17 11 9 -1 17 2 17 7 0 5
3 9 6 9 4 0 4 -11 2 -25z m32 10 c0 -8 -4 -15 -10 -15 -5 0 -7 7 -4 15 4 8 8
15 10 15 2 0 4 -7 4 -15z m-1957 -20 c4 -24 3 -25 -14 -9 -10 9 -16 21 -13 25
10 16 22 9 27 -16z m237 -5 c0 -5 -4 -12 -10 -15 -5 -3 -10 -4 -10 -1 0 2 -3
12 -6 20 -5 12 -2 15 10 10 9 -3 16 -10 16 -14z m-760 4 c0 -3 -7 -12 -15 -21
-20 -19 -32 -10 -14 11 14 15 29 21 29 10z m70 -15 c0 -5 -4 -9 -10 -9 -5 0
-10 7 -10 16 0 8 5 12 10 9 6 -3 10 -10 10 -16z m2432 -31 c-6 -6 -12 -6 -16
1 -4 6 -2 11 4 11 7 0 10 6 7 14 -3 8 -3 17 1 21 4 4 9 -3 10 -15 2 -12 -1
-27 -6 -32z m98 37 c0 -17 -2 -18 -25 -9 -13 5 -14 8 -3 15 19 13 28 11 28 -6z
m-1900 -44 c0 -9 -7 -11 -22 -7 -13 3 -29 6 -35 6 -7 0 -13 7 -13 16 0 8 4 13
9 9 5 -3 12 -1 16 5 8 13 45 -10 45 -29z m110 -1 c0 -4 -11 -7 -25 -6 -24 1
-28 7 -17 34 3 10 9 9 23 -4 11 -9 19 -20 19 -24z m75 30 c3 -5 1 -10 -4 -10
-6 0 -11 5 -11 10 0 6 2 10 4 10 3 0 8 -4 11 -10z m1131 -4 c22 -23 17 -36
-10 -23 -13 6 -21 17 -19 24 6 17 11 16 29 -1z m184 -7 c0 -14 -17 -10 -23 5
-4 10 -1 13 9 9 7 -3 14 -9 14 -14z m550 11 c0 -5 -4 -10 -10 -10 -5 0 -10 5
-10 10 0 6 5 10 10 10 6 0 10 -4 10 -10z m-1715 -10 c3 -5 1 -10 -4 -10 -6 0
-11 5 -11 10 0 6 2 10 4 10 3 0 8 -4 11 -10z m700 0 c3 -5 1 -10 -4 -10 -6 0
-11 5 -11 10 0 6 2 10 4 10 3 0 8 -4 11 -10z m-1155 -35 c0 -8 5 -15 11 -15 5
0 7 5 3 12 -4 7 -3 8 4 4 7 -4 12 -2 12 5 0 7 2 10 5 8 6 -7 -27 -79 -37 -79
-5 0 -16 9 -25 19 -9 11 -21 17 -26 14 -6 -4 -8 1 -4 10 4 10 1 17 -6 18 -7 0
-2 4 11 10 13 5 20 14 16 20 -4 8 0 8 15 0 11 -7 21 -18 21 -26z m1721 8 c-12
-20 -14 -14 -5 12 4 9 9 14 11 11 3 -2 0 -13 -6 -23z m412 12 c-3 -9 -8 -14
-10 -11 -3 3 -2 9 2 15 9 16 15 13 8 -4z m-606 -11 c2 -7 -9 -16 -25 -22 -28
-10 -29 -9 -18 14 11 24 36 29 43 8z m127 8 c2 -4 -4 -8 -14 -8 -10 0 -16 4
-14 8 3 4 9 8 14 8 5 0 11 -4 14 -8z m-471 -17 c-3 -9 -8 -14 -10 -11 -3 3 -2
9 2 15 9 16 15 13 8 -4z m212 5 c3 -5 2 -10 -4 -10 -5 0 -13 5 -16 10 -3 6 -2
10 4 10 5 0 13 -4 16 -10z m-1286 -44 c-20 -21 -20 -21 1 -26 12 -3 21 -8 21
-12 -3 -32 0 -40 14 -34 8 3 15 1 15 -4 0 -6 -9 -10 -20 -10 -11 0 -20 5 -20
11 0 8 -5 8 -15 -1 -8 -7 -15 -19 -15 -26 0 -8 -7 -14 -15 -14 -8 0 -15 9 -15
21 0 11 -4 18 -9 15 -5 -3 -8 6 -8 19 0 14 3 25 8 25 5 0 9 -9 9 -20 0 -11 5
-20 10 -20 6 0 10 5 10 10 0 6 3 9 8 9 21 -4 23 3 7 21 -10 11 -21 18 -24 15
-11 -6 -11 38 0 51 8 10 17 10 34 2 23 -10 23 -11 4 -32z m1173 15 c5 14 28 3
28 -12 0 -6 -4 -7 -10 -4 -5 3 -10 2 -10 -4 0 -5 12 -9 27 -8 21 2 28 -3 33
-23 3 -14 16 -29 28 -35 12 -5 22 -17 22 -26 0 -21 -31 -30 -55 -16 -15 8 -17
7 -12 -12 3 -11 1 -19 -4 -15 -5 3 -9 0 -9 -5 0 -6 -6 -11 -14 -11 -8 0 -17
-10 -19 -22 -4 -21 -4 -21 -6 3 0 16 -10 30 -26 39 -13 7 -22 17 -19 22 3 4
-2 11 -11 14 -10 4 -15 14 -12 25 3 11 2 17 -2 15 -12 -8 -34 11 -26 23 5 9
10 9 20 1 10 -8 14 -7 18 2 2 7 8 0 12 -17 5 -16 17 -36 27 -43 10 -7 18 -21
19 -30 0 -9 5 -2 10 16 5 18 14 30 19 27 6 -4 10 -1 10 5 0 7 -9 14 -19 17
-11 3 -17 11 -15 18 4 8 -3 15 -18 17 -13 2 -23 8 -23 15 0 6 -3 14 -7 18 -4
4 -4 13 -1 21 4 11 9 10 23 -6 12 -14 19 -17 22 -9z m872 14 c-4 -8 -8 -15
-10 -15 -2 0 -4 7 -4 15 0 8 4 15 10 15 5 0 7 -7 4 -15z m-704 -10 c0 -9 -6
-12 -15 -9 -8 4 -12 10 -9 15 8 14 24 10 24 -6z m-1530 -15 c-20 -13 -30 -12
-30 1 0 5 4 8 9 4 5 -3 13 0 16 6 4 5 10 8 13 4 4 -3 0 -10 -8 -15z m1818 1
c11 -7 11 -9 0 -13 -7 -3 -19 1 -26 8 -10 11 -10 14 0 14 7 0 19 -4 26 -9z
m-2372 -31 c8 0 14 -5 14 -11 0 -6 -9 -9 -20 -6 -14 4 -20 0 -20 -11 0 -15 -2
-15 -10 -2 -5 8 -10 25 -10 38 0 21 1 22 16 8 8 -9 22 -16 30 -16z m2264 -21
c0 -21 -3 -38 -7 -38 -22 4 -32 -3 -27 -16 4 -10 0 -15 -11 -15 -11 0 -15 5
-11 15 3 8 1 15 -5 15 -6 0 -7 5 -4 10 4 6 10 8 15 5 4 -3 15 -2 23 1 12 4 14
15 10 41 -4 26 -3 34 5 29 7 -4 12 -25 12 -47z m-100 20 c0 -4 -7 -6 -15 -3
-8 4 -15 10 -15 15 0 4 7 6 15 3 8 -4 15 -10 15 -15z m260 10 c0 -6 -6 -17
-14 -24 -12 -12 -15 -12 -20 1 -3 9 -4 20 0 25 7 13 34 11 34 -2z m50 -43 c17
-23 22 -56 9 -56 -9 0 -13 15 -10 38 3 18 -19 15 -26 -4 -5 -13 -7 -13 -14 -2
-5 7 -9 18 -9 23 0 6 4 4 9 -4 5 -8 11 -9 15 -3 3 6 2 13 -4 17 -5 3 -10 11
-10 16 0 14 22 0 40 -25z m-2250 20 c0 -3 -4 -8 -10 -11 -5 -3 -10 -1 -10 4 0
6 5 11 10 11 6 0 10 -2 10 -4z m1689 -46 c1 -13 0 -13 -9 0 -5 8 -9 24 -9 35
l0 20 9 -20 c5 -11 9 -27 9 -35z m809 25 c6 -14 8 -25 3 -25 -4 0 -13 11 -19
25 -6 14 -8 25 -3 25 4 0 13 -11 19 -25z m-360 -5 c-14 -22 -24 -19 -15 5 4 8
11 15 17 15 6 0 6 -7 -2 -20z m-1734 -1 c-3 -6 0 -15 7 -20 10 -6 7 -8 -9 -6
-25 1 -27 8 -10 25 15 15 21 16 12 1z m1527 4 c0 -5 2 -19 3 -32 2 -14 8 -27
14 -29 23 -7 12 -21 -15 -19 -16 1 -28 7 -28 12 0 6 -4 16 -8 23 -5 7 -4 12 2
12 6 0 11 9 11 20 0 18 19 30 21 13z m499 -2 c0 -6 -4 -13 -10 -16 -5 -3 -10
1 -10 9 0 9 5 16 10 16 6 0 10 -4 10 -9z m120 -29 c0 -15 -2 -15 -10 -2 -13
20 -13 33 0 25 6 -3 10 -14 10 -23z m-239 -24 c-19 -23 -29 -23 -33 0 -5 23
21 43 37 29 9 -8 7 -16 -4 -29z m-2041 17 c0 -8 -4 -15 -10 -15 -5 0 -7 7 -4
15 4 8 8 15 10 15 2 0 4 -7 4 -15z m-342 -30 c-3 -3 -9 2 -12 12 -6 14 -5 15
5 6 7 -7 10 -15 7 -18z m2302 15 c0 -5 -4 -10 -10 -10 -5 0 -10 5 -10 10 0 6
5 10 10 10 6 0 10 -4 10 -10z m115 -10 c3 -5 1 -10 -4 -10 -6 0 -11 5 -11 10
0 6 2 10 4 10 3 0 8 -4 11 -10z m-1865 -20 c0 -5 -4 -10 -10 -10 -5 0 -10 5
-10 10 0 6 5 10 10 10 6 0 10 -4 10 -10z m1963 -5 c-3 -9 -8 -14 -10 -11 -3 3
-2 9 2 15 9 16 15 13 8 -4z m-2593 -4 c0 -5 -7 -12 -16 -15 -14 -5 -15 -4 -4
9 14 17 20 19 20 6z m2350 -6 c20 -24 6 -28 -15 -5 -10 11 -13 20 -8 20 6 0
16 -7 23 -15z m-120 -17 c0 -6 -6 -5 -15 2 -8 7 -15 14 -15 16 0 2 7 1 15 -2
8 -4 15 -11 15 -16z m190 12 c0 -5 -2 -10 -4 -10 -3 0 -8 5 -11 10 -3 6 -1 10
4 10 6 0 11 -4 11 -10z m-540 -21 c0 -5 -4 -9 -10 -9 -5 0 -10 7 -10 16 0 8 5
12 10 9 6 -3 10 -10 10 -16z m-1370 -25 c0 -8 -4 -12 -10 -9 -5 3 -10 10 -10
16 0 5 5 9 10 9 6 0 10 -7 10 -16z m150 -13 c0 -29 -11 -52 -21 -45 -5 3 -6
10 -3 16 4 7 -2 8 -17 3 l-24 -8 25 26 c30 32 40 34 40 8z m-170 -7 c0 -8 5
-12 10 -9 6 3 10 1 10 -5 0 -7 -7 -10 -15 -6 -8 3 -19 -2 -24 -12 -10 -16 -10
-16 -11 0 0 23 11 48 21 48 5 0 9 -7 9 -16z m-242 -6 c-3 -7 -13 -15 -23 -16
-15 -4 -16 -2 -4 12 17 19 32 21 27 4z m1792 -48 c-12 -8 -12 -10 3 -16 9 -3
17 -12 17 -20 0 -8 -6 -11 -16 -7 -9 3 -20 0 -24 -7 -5 -8 -8 -2 -7 16 2 27
26 58 37 48 2 -3 -2 -9 -10 -14z m-198 -32 c-7 -7 -10 -5 -7 8 5 29 6 30 12
16 3 -8 1 -18 -5 -24z m-1415 -41 c-6 -20 -27 -19 -27 2 0 14 5 19 15 14 9 -3
14 -10 12 -16z"/>
<path d="M3558 3074 c2 -13 8 -21 13 -18 14 8 11 31 -4 37 -10 4 -13 -2 -9
-19z"/>
<path d="M3447 2973 c-10 -9 -9 -33 1 -33 4 0 8 9 9 20 2 21 0 24 -10 13z"/>
<path d="M3340 2949 c0 -6 5 -19 10 -30 9 -16 7 -19 -8 -19 -10 0 -24 6 -31
13 -11 10 -12 9 -6 -1 4 -7 0 -21 -8 -30 -13 -15 -13 -19 -1 -30 12 -11 14
-10 14 4 0 16 1 16 18 1 23 -21 32 -21 32 -1 0 14 3 14 15 4 8 -7 15 -22 15
-33 0 -20 0 -20 15 -1 11 15 12 21 1 29 -7 6 -11 16 -8 23 8 25 -8 59 -33 70
-17 8 -25 8 -25 1z"/>
<path d="M3295 2940 c-3 -5 -1 -10 4 -10 6 0 11 5 11 10 0 6 -2 10 -4 10 -3 0
-8 -4 -11 -10z"/>
<path d="M3420 2905 c0 -8 2 -15 4 -15 2 0 6 7 10 15 3 8 1 15 -4 15 -6 0 -10
-7 -10 -15z"/>
<path d="M3107 2857 c-3 -8 -2 -19 3 -26 5 -10 9 -8 14 4 3 9 6 21 6 26 0 14
-17 11 -23 -4z"/>
<path d="M3317 2833 c-11 -10 -8 -20 8 -27 10 -4 15 1 15 14 0 20 -11 26 -23
13z"/>
<path d="M2602 3039 c-7 -11 -11 -24 -8 -27 10 -9 28 15 24 32 -2 14 -5 13
-16 -5z"/>
<path d="M2640 2860 c0 -21 16 -44 23 -33 4 6 0 19 -8 29 -11 15 -14 16 -15 4z"/>
<path d="M2690 2850 c0 -5 4 -10 9 -10 6 0 13 5 16 10 3 6 -1 10 -9 10 -9 0
-16 -4 -16 -10z"/>
<path d="M2445 3070 c3 -5 8 -10 11 -10 2 0 4 5 4 10 0 6 -5 10 -11 10 -5 0
-7 -4 -4 -10z"/>
<path d="M2385 3040 c-3 -5 -2 -10 4 -10 5 0 13 5 16 10 3 6 2 10 -4 10 -5 0
-13 -4 -16 -10z"/>
<path d="M2090 2914 c0 -10 4 -12 13 -7 6 4 15 8 19 8 21 0 17 15 -5 15 -18 0
-27 -5 -27 -16z"/>
<path d="M1150 2936 c0 -9 5 -16 10 -16 6 0 10 4 10 9 0 6 -4 13 -10 16 -5 3
-10 -1 -10 -9z"/>
<path d="M2500 2809 c0 -5 5 -7 10 -4 6 3 10 8 10 11 0 2 -4 4 -10 4 -5 0 -10
-5 -10 -11z"/>
<path d="M2616 2721 c-4 -7 -5 -15 -2 -18 9 -9 19 4 14 18 -4 11 -6 11 -12 0z"/>
<path d="M2515 2551 c-3 -5 -2 -12 3 -15 5 -3 9 1 9 9 0 17 -3 19 -12 6z"/>
<path d="M3877 2663 c-4 -3 -7 -11 -7 -17 0 -6 5 -5 12 2 6 6 9 14 7 17 -3 3
-9 2 -12 -2z"/>
<path d="M1535 2710 c-3 -5 -1 -10 4 -10 6 0 11 5 11 10 0 6 -2 10 -4 10 -3 0
-8 -4 -11 -10z"/>
<path d="M2520 4265 c0 -8 4 -15 9 -15 5 0 17 -3 25 -6 12 -5 15 -2 10 9 -3 9
-12 13 -21 10 -11 -4 -14 -2 -9 5 4 7 2 12 -3 12 -6 0 -11 -7 -11 -15z"/>
<path d="M2515 4230 c-4 -6 -11 -8 -16 -5 -15 10 -23 -25 -9 -38 10 -9 11 -9
6 0 -3 6 -2 14 3 17 5 3 12 -1 15 -9 4 -13 10 -14 26 -5 25 13 25 26 1 40 -14
7 -22 7 -26 0z m25 -19 c0 -6 -4 -13 -10 -16 -5 -3 -10 1 -10 9 0 9 5 16 10
16 6 0 10 -4 10 -9z"/>
<path d="M2083 4160 c-14 -6 -23 -18 -23 -31 0 -21 1 -21 19 -5 12 11 21 14
26 7 3 -6 1 -11 -6 -11 -9 0 -9 -3 1 -14 9 -12 8 -17 -9 -28 -15 -9 -17 -15
-9 -25 12 -15 46 -17 66 -5 16 11 5 42 -15 42 -11 0 -10 7 7 30 12 16 18 34
15 40 -7 12 -42 12 -72 0z"/>
<path d="M2896 4144 c-4 -14 -5 -29 -2 -31 3 -3 8 7 12 21 3 15 4 29 1 32 -2
3 -8 -7 -11 -22z"/>
<path d="M2169 4153 c0 -5 -2 -23 -5 -41 -3 -22 0 -31 7 -26 6 3 9 17 6 30 -2
13 0 24 4 24 5 0 9 5 9 10 0 11 -20 14 -21 3z"/>
<path d="M2316 4114 c-8 -20 -8 -24 2 -24 4 0 8 9 9 20 2 24 -3 26 -11 4z"/>
<path d="M2200 4103 c0 -7 -4 -13 -10 -13 -18 0 -10 -25 15 -43 25 -18 47 -5
26 16 -14 14 -15 40 -1 32 6 -3 10 1 10 9 0 9 -8 14 -20 13 -11 -1 -20 -7 -20
-14z"/>
<path d="M2740 4101 c0 -6 4 -13 10 -16 6 -3 7 1 4 9 -7 18 -14 21 -14 7z"/>
<path d="M3000 4090 c-13 -8 -12 -10 3 -10 9 0 17 -5 17 -12 0 -6 3 -9 6 -5 3
3 2 12 -3 21 -6 10 -13 12 -23 6z"/>
<path d="M1898 4063 c7 -3 16 -2 19 1 4 3 -2 6 -13 5 -11 0 -14 -3 -6 -6z"/>
<path d="M1937 4046 c-4 -10 -1 -13 8 -9 8 3 12 9 9 14 -7 12 -11 11 -17 -5z"/>
<path d="M1983 4023 c1 -29 4 -38 10 -28 4 8 5 21 1 28 -5 8 -4 9 3 2 16 -15
26 -55 14 -55 -7 0 -9 -18 -6 -49 3 -38 1 -50 -11 -55 -8 -3 -17 1 -21 9 -5
13 -7 13 -19 -2 -7 -10 -13 -22 -13 -28 0 -5 6 -2 13 8 11 14 15 15 19 3 3 -8
3 -24 0 -37 -5 -16 -3 -20 6 -14 10 6 10 2 0 -16 -7 -13 -12 -28 -11 -32 1 -5
-6 -11 -16 -14 -11 -2 -26 -20 -35 -38 -14 -29 -14 -34 -1 -39 8 -3 12 -11 9
-16 -4 -6 -3 -10 2 -9 20 3 24 -2 13 -16 -11 -13 -10 -21 7 -43 11 -15 23 -37
27 -49 4 -14 12 -20 22 -16 7 3 14 0 14 -5 0 -6 -10 -14 -22 -18 -13 -4 -26
-11 -30 -17 -11 -18 -52 -14 -70 6 -18 20 -20 29 -21 75 0 12 -5 22 -12 22 -6
0 -17 -10 -23 -22 -9 -19 -11 -20 -11 -5 -1 11 -5 15 -13 11 -8 -5 -9 -1 -5
12 6 17 6 17 -5 3 -7 -9 -19 -14 -26 -11 -18 6 -42 -17 -42 -40 0 -18 -1 -18
-16 -4 -22 22 -24 20 -20 -14 2 -22 -1 -30 -13 -30 -13 -1 -13 -3 3 -15 11 -8
15 -15 9 -15 -7 0 -15 5 -18 10 -4 6 -11 8 -16 4 -5 -3 -7 -10 -4 -15 4 -5 2
-9 -3 -9 -19 0 -21 14 -5 32 22 24 25 64 7 79 -10 8 -13 22 -9 40 3 15 1 30
-4 34 -16 10 -13 32 4 32 9 0 14 -6 11 -14 -3 -7 1 -13 9 -13 8 0 15 -3 15 -7
0 -5 14 -8 30 -9 33 -1 37 3 16 20 -20 16 -31 86 -14 86 8 1 6 6 -6 15 -24 18
-36 11 -37 -23 0 -26 -1 -26 -9 -4 -5 12 -14 22 -20 22 -6 0 -9 -4 -5 -9 3 -5
1 -12 -5 -16 -5 -3 -10 2 -10 13 0 17 -5 15 -34 -13 -46 -43 -78 -50 -124 -28
-47 23 -102 95 -102 134 0 87 86 139 171 105 23 -9 44 -14 47 -11 9 9 -31 34
-55 35 -13 0 -23 5 -23 11 0 6 -6 9 -12 6 -7 -2 -18 2 -23 10 -8 11 -23 3 -75
-40 -134 -110 -340 -338 -340 -376 0 -6 -5 -11 -12 -11 -9 0 -9 -3 0 -12 17
-17 15 -33 -3 -18 -12 10 -17 6 -32 -24 -13 -29 -14 -39 -4 -49 9 -9 14 -9 21
3 11 17 3 33 -12 24 -7 -4 -8 -2 -4 4 5 9 16 8 39 -4 18 -9 29 -13 26 -10 -4
4 4 18 18 32 30 30 52 25 87 -17 14 -16 27 -29 30 -29 12 0 44 -39 38 -46 -4
-4 -1 -4 6 0 16 9 44 -12 35 -27 -3 -6 -1 -7 6 -3 6 4 9 11 6 16 -3 4 4 6 15
3 21 -6 25 3 12 25 -5 7 -16 10 -25 6 -11 -4 -42 15 -98 62 -68 57 -84 66 -99
56 -15 -9 -19 -7 -23 14 -2 13 0 24 4 24 5 0 9 -6 9 -12 0 -7 11 10 24 38 30
64 67 94 116 94 26 0 48 9 75 30 43 34 51 36 59 15 3 -8 12 -15 19 -15 8 0 20
-13 27 -30 7 -16 21 -32 31 -35 10 -4 19 -10 19 -14 0 -11 73 -10 88 1 8 8 12
6 12 -4 0 -8 -6 -20 -12 -27 -7 -8 0 -6 15 4 15 10 27 14 26 9 -1 -5 0 -12 1
-16 4 -12 7 -27 9 -37 0 -6 12 -22 26 -37 14 -15 25 -31 25 -36 0 -12 -42 11
-57 31 -15 20 -27 8 -28 -27 0 -15 -4 -25 -10 -22 -5 3 -8 10 -6 15 8 25 7 54
-3 52 -6 -1 -9 5 -8 13 5 19 -8 7 -22 -22 -6 -13 -20 -24 -31 -26 -14 -2 -16
0 -7 6 7 5 10 16 6 27 -5 12 -4 16 3 12 6 -4 13 0 16 7 11 27 -47 14 -61 -14
-7 -14 -10 -17 -8 -8 3 10 1 20 -4 23 -6 4 -10 0 -10 -8 0 -23 -44 -39 -95
-36 -53 4 -67 -9 -34 -29 12 -8 18 -9 14 -3 -4 7 2 10 17 7 13 -3 27 -5 32 -5
4 -1 6 -10 3 -21 -6 -24 4 -31 44 -34 24 -2 29 2 29 22 0 31 17 19 25 -18 7
-31 15 -34 83 -32 35 1 44 -17 12 -25 -11 -3 -20 -10 -20 -15 0 -5 -7 -16 -15
-25 -14 -14 -15 -13 -9 10 6 25 5 26 -32 22 -38 -4 -39 -4 -14 10 25 14 25 14
3 15 -13 0 -23 -3 -24 -7 0 -5 -2 -24 -2 -43 -2 -29 -6 -35 -23 -34 -20 0 -21
-2 -11 -24 10 -22 12 -22 18 -5 6 15 8 14 8 -7 1 -19 3 -22 11 -10 7 12 13 12
33 1 14 -7 34 -10 44 -7 13 4 25 0 34 -11 9 -11 10 -14 1 -9 -7 4 -15 0 -19
-10 -4 -10 -2 -19 5 -22 17 -5 15 -32 -2 -32 -17 0 -21 -5 -30 -42 -5 -24 -3
-28 14 -28 11 0 20 -4 20 -10 0 -5 9 -10 20 -10 11 0 20 7 20 16 0 9 5 12 13
8 9 -6 9 -4 0 7 -7 7 -13 17 -13 22 0 6 5 6 13 0 11 -8 18 -9 55 -5 17 3 15
32 -5 54 -14 15 -15 21 -4 27 9 6 10 11 2 15 -6 4 -11 19 -11 34 1 25 2 25 14
10 7 -10 22 -18 32 -18 18 1 18 1 0 15 -11 8 -16 15 -12 15 5 0 3 7 -4 15 -7
9 -10 18 -7 21 9 9 27 -5 27 -22 0 -8 4 -14 9 -14 14 0 21 -43 9 -57 -13 -16
4 -17 20 -1 9 9 13 7 18 -5 3 -9 10 -17 16 -17 5 0 6 5 3 10 -8 13 -4 13 38
-5 24 -10 34 -20 33 -32 -2 -10 -1 -12 1 -5 6 15 20 16 25 0 3 -9 6 -9 12 1 5
8 1 14 -14 18 -17 4 -21 11 -17 30 4 20 1 24 -14 20 -12 -3 -20 2 -24 13 -3
10 -12 21 -20 24 -8 3 -15 13 -15 23 1 16 2 16 13 2 7 -9 22 -19 35 -23 12 -4
22 -11 22 -15 0 -4 9 -7 20 -8 14 -1 20 4 20 18 0 10 -5 19 -11 19 -6 0 -9 6
-6 13 2 6 14 11 25 9 15 -2 22 2 22 13 0 9 4 14 9 11 5 -3 11 3 14 14 3 13 0
20 -9 20 -8 0 -14 -5 -14 -11 0 -5 -4 -7 -10 -4 -5 3 -10 -1 -10 -9 0 -9 -4
-16 -9 -16 -5 0 -17 -7 -25 -16 -16 -16 -21 -8 -10 20 3 9 12 16 20 16 8 0 14
5 14 10 0 6 -4 10 -10 10 -5 0 -10 8 -10 19 0 22 57 35 78 19 9 -8 12 -5 12 8
1 18 1 18 13 -1 14 -23 37 -31 37 -13 0 9 4 8 10 -2 7 -11 10 -7 10 18 0 20 4
31 10 27 6 -4 8 -11 5 -16 -4 -5 4 -9 16 -9 12 0 19 -3 15 -7 -4 -5 -13 -8
-19 -8 -6 0 -15 -15 -19 -32 -10 -40 -15 -41 -30 -5 l-11 27 -8 -29 c-5 -17
-6 -32 -4 -35 3 -2 5 2 5 10 0 8 9 -1 20 -18 22 -37 35 -43 27 -13 -8 31 6 24
21 -10 14 -31 42 -41 42 -15 0 8 -4 15 -10 15 -5 0 -10 9 -10 21 0 11 5 17 10
14 6 -3 10 1 10 10 0 9 5 13 10 10 16 -10 12 15 -5 32 -9 8 -13 18 -10 21 3 4
10 0 14 -7 8 -12 11 -12 24 0 12 12 10 17 -16 42 -16 15 -27 30 -24 34 4 3 15
-5 26 -18 11 -13 23 -20 27 -16 12 11 -8 39 -40 57 -25 14 -28 13 -41 -4 -8
-11 -17 -17 -20 -14 -3 3 1 11 9 17 11 9 12 20 5 43 -4 17 -6 35 -3 40 3 4 -2
15 -10 24 -23 22 -20 43 4 37 14 -4 20 0 20 11 0 9 5 16 10 16 6 0 10 -6 10
-13 0 -7 13 -18 29 -24 29 -10 29 -10 20 15 -13 34 -5 38 30 12 l31 -21 0 30
c0 21 -6 32 -21 36 -14 5 -17 10 -10 19 6 7 8 21 5 33 -6 23 10 38 29 26 6 -4
21 -9 32 -10 18 -3 18 -2 3 8 -10 5 -18 18 -18 27 0 13 -9 17 -36 18 -32 0
-35 -2 -29 -23 3 -13 1 -23 -4 -23 -5 0 -11 17 -13 37 l-3 36 -36 -34 c-40
-40 -60 -40 -58 -1 1 17 3 21 6 10 6 -24 24 -23 30 2 3 11 9 17 14 14 5 -3 9
1 9 10 0 8 -6 17 -12 19 -10 4 -9 8 2 16 10 7 17 6 22 -2 5 -8 8 -4 8 11 0 16
6 22 23 22 16 0 18 -3 8 -9 -10 -7 -11 -13 -2 -30 13 -23 36 -19 27 5 -3 7 -1
16 4 19 6 4 10 -1 10 -9 0 -9 4 -16 8 -16 5 0 15 -12 22 -27 12 -26 13 -27 21
-8 7 18 8 18 8 2 1 -10 6 -15 12 -12 6 4 17 -1 25 -11 9 -11 13 -13 9 -6 -3 6
1 19 9 28 9 9 14 21 10 27 -3 7 2 3 10 -7 18 -23 20 -36 6 -36 -5 0 -10 -5
-10 -12 0 -6 8 -4 19 6 18 17 19 17 23 0 2 -14 6 -12 17 8 11 22 11 28 -5 47
-11 12 -21 31 -24 43 -3 12 -12 23 -20 26 -13 3 -13 2 0 -7 8 -6 10 -11 5 -11
-6 0 -17 6 -24 13 -11 10 -13 6 -7 -22 3 -19 3 -32 0 -28 -4 4 -13 2 -20 -4
-11 -9 -15 -7 -21 7 -3 11 -15 26 -25 35 -10 9 -18 25 -18 35 1 18 1 18 14 1
8 -10 20 -15 30 -11 9 3 16 1 16 -6 0 -18 20 0 31 28 12 31 -4 54 -23 33 -10
-11 -10 -13 0 -7 15 9 16 -10 1 -20 -6 -3 -15 -2 -21 4 -7 7 -26 5 -60 -9 -93
-36 -125 -28 -187 51 l-20 25 2 -42z m112 -233 c3 -5 2 -10 -4 -10 -5 0 -13 5
-16 10 -3 6 -2 10 4 10 5 0 13 -4 16 -10z m-55 -111 c0 -6 -4 -7 -10 -4 -5 3
-10 11 -10 16 0 6 5 7 10 4 6 -3 10 -11 10 -16z m-40 -124 c0 -8 -4 -15 -10
-15 -5 0 -7 7 -4 15 4 8 8 15 10 15 2 0 4 -7 4 -15z m-198 -40 c0 -5 -5 -11
-11 -13 -6 -2 -11 4 -11 13 0 9 5 15 11 13 6 -2 11 -8 11 -13z m42 7 c6 -10
-5 -26 -21 -29 -6 -2 -11 6 -10 17 1 20 21 27 31 12z m-109 -60 c-3 -3 -11 0
-18 7 -9 10 -8 11 6 5 10 -3 15 -9 12 -12z m-149 -100 c2 -8 0 -8 -3 -2 -3 7
-10 4 -18 -7 -10 -13 -10 -20 -2 -25 9 -6 9 -8 0 -8 -19 0 -25 18 -13 40 12
22 32 23 36 2z m-102 -17 c-4 -8 -7 -15 -9 -15 -2 0 -5 7 -9 15 -3 9 0 15 9
15 9 0 12 -6 9 -15z m56 -206 c0 -6 -4 -7 -10 -4 -5 3 -10 11 -10 16 0 6 5 7
10 4 6 -3 10 -11 10 -16z m33 -2 c3 -8 1 -20 -4 -28 -6 -10 -9 -7 -9 14 0 29
5 35 13 14z"/>
<path d="M2390 4045 c0 -9 9 -25 19 -37 19 -20 20 -20 15 -1 -5 16 -1 20 18
19 15 -1 24 -8 25 -21 2 -11 0 -14 -3 -7 -5 10 -10 8 -20 -7 -16 -22 -41 -19
-46 6 -2 11 -16 16 -44 17 -43 1 -48 -11 -17 -42 7 -7 13 -22 13 -33 0 -17 3
-18 21 -7 17 11 22 10 35 -7 15 -20 16 -19 42 13 15 18 34 32 43 32 15 0 49
30 49 43 0 4 -14 7 -31 7 -22 0 -32 5 -36 20 -4 16 -14 20 -44 20 -28 0 -39
-4 -39 -15z m45 -95 c-3 -5 -12 -10 -18 -10 -7 0 -6 4 3 10 19 12 23 12 15 0z"/>
<path d="M2573 4042 c-13 -2 -23 -8 -23 -13 0 -6 5 -7 12 -3 7 5 9 0 6 -14 -7
-24 17 -52 25 -30 2 7 8 9 13 5 5 -5 2 -14 -7 -20 -16 -12 -19 -43 -5 -65 4
-6 4 -17 0 -24 -4 -7 -3 -8 5 -4 7 4 11 15 10 24 -1 10 4 31 11 47 11 27 13
28 20 10 7 -19 7 -19 19 3 7 14 21 22 36 22 14 0 25 5 25 10 0 6 -20 10 -45
10 -44 0 -51 7 -46 42 1 7 -12 7 -56 0z m37 -32 c0 -5 -4 -10 -10 -10 -5 0
-10 5 -10 10 0 6 5 10 10 10 6 0 10 -4 10 -10z"/>
<path d="M2882 4035 c4 -4 3 -14 -3 -21 -6 -7 -6 -15 -1 -18 6 -3 12 3 15 14
3 11 0 23 -6 27 -7 3 -9 3 -5 -2z"/>
<path d="M3110 4029 c0 -5 5 -7 10 -4 6 3 10 8 10 11 0 2 -4 4 -10 4 -5 0 -10
-5 -10 -11z"/>
<path d="M2935 4010 c3 -5 8 -10 11 -10 2 0 4 5 4 10 0 6 -5 10 -11 10 -5 0
-7 -4 -4 -10z"/>
<path d="M2897 3997 c-6 -17 -76 -21 -94 -6 -16 14 -17 5 -3 -22 6 -10 17 -19
26 -19 10 0 13 -7 8 -25 -4 -15 -2 -25 5 -25 6 0 11 11 11 24 0 13 8 30 17 37
15 13 16 11 10 -20 -7 -32 4 -61 23 -61 4 0 19 17 33 38 18 28 22 43 15 53 -8
12 -9 11 -5 -2 3 -8 -5 -25 -18 -37 -20 -20 -24 -20 -29 -5 -4 9 -3 19 1 22 9
7 17 61 10 61 -3 0 -7 -6 -10 -13z"/>
<path d="M1610 3966 c0 -2 7 -7 16 -10 8 -3 12 -2 9 4 -6 10 -25 14 -25 6z"/>
<path d="M3220 3945 c0 -32 42 -77 68 -73 22 3 20 6 -22 48 -37 35 -46 40 -46
25z"/>
<path d="M1676 3942 c-3 -5 1 -15 9 -22 8 -7 15 -17 15 -22 0 -6 12 -19 26
-30 14 -11 23 -27 20 -34 -4 -11 1 -13 18 -8 13 3 27 1 30 -5 4 -5 13 -8 21
-5 11 5 13 -2 9 -33 -3 -29 -2 -33 5 -18 9 19 10 19 10 -2 1 -13 6 -23 12 -23
7 0 10 15 7 38 -3 31 2 44 24 68 16 16 28 32 28 37 0 12 -23 8 -44 -8 -23 -17
-88 -20 -116 -5 -11 6 -30 26 -44 46 -13 20 -27 31 -30 26z"/>
<path d="M1931 3934 c0 -11 3 -14 6 -6 3 7 2 16 -1 19 -3 4 -6 -2 -5 -13z"/>
<path d="M2480 3942 c0 -7 -7 -12 -15 -12 -9 0 -20 -12 -25 -26 -6 -14 -15
-22 -21 -18 -8 4 -9 0 -4 -15 4 -12 2 -21 -4 -21 -6 0 -11 -7 -11 -16 0 -13
-3 -14 -13 -5 -14 11 -27 6 -27 -10 0 -5 7 -6 15 -3 8 4 15 1 15 -5 0 -19 2
-25 11 -43 8 -14 6 -18 -10 -18 -11 0 -23 -4 -26 -10 -3 -5 0 -10 8 -10 10 0
13 -8 10 -24 -3 -13 0 -32 6 -43 10 -17 10 -17 11 0 0 9 4 17 9 17 5 0 7 -10
4 -21 -5 -18 -3 -20 14 -15 14 4 23 1 27 -9 8 -23 25 -18 32 10 4 14 9 23 12
20 10 -9 8 -59 -1 -66 -13 -9 7 -19 20 -11 8 5 9 19 3 45 -5 24 -4 49 3 69 9
24 9 32 0 35 -7 3 -9 13 -3 32 4 16 4 35 -1 42 -5 8 -9 24 -9 37 0 12 -4 22
-10 22 -12 0 -12 -7 -1 -35 13 -34 -29 -58 -52 -30 -6 7 -10 6 -13 -2 -6 -13
-34 -6 -34 9 0 5 14 14 30 20 24 8 28 13 20 23 -8 10 -7 16 6 23 11 6 13 11 5
16 -8 5 -4 13 11 26 13 10 20 22 16 26 -5 4 -8 2 -8 -4z m-33 -194 c-3 -8 -6
-5 -6 6 -1 11 2 17 5 13 3 -3 4 -12 1 -19z m-24 -19 c-8 -8 -13 -7 -18 2 -5 8
-4 10 3 5 7 -4 12 -2 12 5 0 7 3 9 7 6 4 -4 2 -12 -4 -18z"/>
<path d="M1961 3918 c10 -19 29 -25 29 -8 0 18 -5 24 -22 25 -13 1 -15 -2 -7
-17z"/>
<path d="M2960 3930 c0 -5 5 -10 11 -10 5 0 7 5 4 10 -3 6 -8 10 -11 10 -2 0
-4 -4 -4 -10z"/>
<path d="M3031 3913 c1 -17 3 -21 6 -10 2 9 9 17 14 17 6 0 7 5 4 10 -12 19
-25 10 -24 -17z"/>
<path d="M2630 3916 c0 -2 7 -7 16 -10 8 -3 12 -2 9 4 -6 10 -25 14 -25 6z"/>
<path d="M2685 3890 c3 -5 8 -10 11 -10 2 0 4 5 4 10 0 6 -5 10 -11 10 -5 0
-7 -4 -4 -10z"/>
<path d="M2646 3883 c-12 -13 -5 -20 19 -20 14 0 25 1 25 3 0 8 -38 23 -44 17z"/>
<path d="M2720 3873 c0 -13 5 -23 10 -23 13 0 13 11 0 30 -8 12 -10 11 -10 -7z"/>
<path d="M3051 3864 c0 -11 3 -14 6 -6 3 7 2 16 -1 19 -3 4 -6 -2 -5 -13z"/>
<path d="M2561 3853 c16 -27 25 -29 33 -7 3 9 2 12 -5 9 -5 -4 -17 -1 -26 7
-15 12 -15 11 -2 -9z"/>
<path d="M1442 3848 c-7 -7 -12 -20 -12 -30 0 -14 6 -16 29 -12 23 5 35 1 56
-20 30 -30 35 -32 35 -11 0 21 -59 85 -79 85 -9 0 -22 -5 -29 -12z"/>
<path d="M2890 3835 c0 -16 16 -20 24 -6 3 5 -1 11 -9 15 -9 3 -15 0 -15 -9z"/>
<path d="M3178 3835 c19 -33 36 -51 55 -58 9 -3 17 -17 17 -29 0 -19 2 -20 11
-8 8 12 9 10 4 -7 -4 -14 -2 -23 4 -23 6 0 11 7 11 15 0 18 31 20 51 3 12 -11
12 -11 2 2 -14 15 -18 44 -5 36 11 -7 24 4 45 37 21 32 6 36 -30 7 -14 -11
-34 -20 -45 -20 -22 0 -73 22 -107 47 -23 17 -24 17 -13 -2z"/>
<path d="M2681 3833 c0 -5 4 -17 9 -28 8 -18 9 -17 9 8 1 15 -3 27 -9 27 -5 0
-10 -3 -9 -7z"/>
<path d="M2980 3830 c-8 -4 -26 -12 -40 -17 l-25 -10 23 -12 c19 -10 22 -9 22
6 0 15 2 16 10 3 8 -13 10 -12 10 3 0 9 4 17 8 17 13 0 1 -63 -16 -82 -14 -17
-13 -18 13 -18 26 0 27 2 21 33 -4 25 -3 28 5 15 5 -10 20 -18 32 -17 12 0 16
3 10 6 -7 2 -13 9 -13 14 0 6 -5 15 -10 22 -6 7 -16 19 -23 29 -8 10 -17 13
-27 8z"/>
<path d="M1688 3808 c-4 -10 2 -19 19 -27 27 -12 36 -9 39 14 1 8 -5 15 -13
15 -13 0 -13 -3 -3 -15 7 -8 8 -15 2 -15 -5 0 -16 10 -24 22 -12 18 -15 19
-20 6z"/>
<path d="M2660 3810 c0 -5 5 -10 10 -10 6 0 10 5 10 10 0 6 -4 10 -10 10 -5 0
-10 -4 -10 -10z"/>
<path d="M2835 3810 c3 -5 8 -10 11 -10 2 0 4 5 4 10 0 6 -5 10 -11 10 -5 0
-7 -4 -4 -10z"/>
<path d="M1885 3780 c-11 -12 -13 -20 -6 -20 7 0 9 -6 6 -12 -4 -7 1 -4 9 6
14 18 22 46 13 46 -2 0 -12 -9 -22 -20z"/>
<path d="M2797 3771 l-16 -28 42 -18 c23 -10 45 -20 49 -22 4 -3 6 5 5 16 -1
21 -17 31 -17 11 0 -5 -7 -7 -15 -4 -8 4 -13 10 -10 14 3 5 1 12 -5 15 -6 4
-8 15 -5 26 9 29 -8 23 -28 -10z"/>
<path d="M3569 3774 c-18 -20 -21 -27 -10 -33 16 -10 63 1 68 15 2 6 -5 18
-15 27 -17 16 -20 16 -43 -9z"/>
<path d="M2735 3780 c-3 -6 1 -7 9 -4 18 7 21 14 7 14 -6 0 -13 -4 -16 -10z"/>
<path d="M2160 3776 c0 -2 7 -7 16 -10 8 -3 12 -2 9 4 -6 10 -25 14 -25 6z"/>
<path d="M2541 3764 c0 -11 3 -14 6 -6 3 7 2 16 -1 19 -3 4 -6 -2 -5 -13z"/>
<path d="M2570 3757 c0 -12 6 -29 13 -38 16 -20 55 -30 61 -15 3 8 5 8 5 -1 1
-6 10 -9 21 -6 14 4 20 0 20 -11 0 -9 5 -16 10 -16 6 0 10 5 10 10 0 6 5 10
11 10 5 0 7 -6 3 -12 -4 -7 5 -1 21 15 24 23 26 31 17 50 -6 12 -11 17 -11 10
-1 -7 -8 -10 -18 -7 -14 5 -15 4 -4 -4 12 -9 12 -13 -2 -27 -16 -15 -17 -15
-17 9 0 30 -7 32 -32 9 -16 -14 -21 -15 -27 -4 -7 11 -9 11 -13 0 -3 -10 -14
-4 -36 18 -30 29 -32 30 -32 10z"/>
<path d="M1749 3763 c-1 -4 -1 -17 0 -28 2 -17 0 -17 -8 -5 -6 8 -11 10 -11 4
0 -6 7 -17 15 -24 8 -7 15 -27 16 -44 0 -29 1 -30 10 -8 5 13 14 20 20 17 12
-8 -11 37 -25 46 -5 4 -6 14 -3 23 3 8 2 18 -3 21 -6 4 -11 3 -11 -2z"/>
<path d="M3096 3745 c-3 -9 -6 -24 -6 -33 1 -15 2 -15 11 1 6 10 15 14 22 10
7 -4 5 2 -3 13 -8 10 -15 20 -16 22 -1 2 -4 -4 -8 -13z"/>
<path d="M3020 3729 c0 -5 5 -7 10 -4 6 3 10 8 10 11 0 2 -4 4 -10 4 -5 0 -10
-5 -10 -11z"/>
<path d="M1846 3722 c-2 -4 6 -12 19 -18 19 -9 22 -8 17 8 -4 18 -27 25 -36
10z"/>
<path d="M2250 3716 c0 -9 5 -16 10 -16 6 0 10 4 10 9 0 6 -4 13 -10 16 -5 3
-10 -1 -10 -9z"/>
<path d="M2890 3714 c0 -14 3 -14 15 -4 8 7 15 14 15 16 0 2 -7 4 -15 4 -8 0
-15 -7 -15 -16z"/>
<path d="M2810 3701 c0 -14 34 -38 53 -38 18 0 13 12 -6 12 -7 1 -11 6 -10 12
1 6 -7 13 -17 16 -11 3 -20 2 -20 -2z"/>
<path d="M2350 3678 c0 -9 5 -20 11 -23 17 -11 20 0 4 21 -13 17 -14 17 -15 2z"/>
<path d="M2909 3678 c8 -11 11 -29 8 -45 -4 -16 -4 -22 -1 -15 3 6 10 10 15 6
15 -9 10 -24 -8 -24 -15 0 -10 -15 5 -15 4 0 12 -3 18 -7 7 -5 15 9 21 38 9
40 9 45 -7 42 -10 -2 -28 6 -41 17 -17 14 -20 15 -10 3z"/>
<path d="M3080 3674 c0 -8 5 -12 10 -9 6 4 8 11 5 16 -9 14 -15 11 -15 -7z"/>
<path d="M3126 3666 c5 -12 4 -17 -3 -13 -5 3 -17 -3 -26 -14 -21 -24 -22 -33
-3 -26 19 8 28 -3 15 -19 -6 -7 -18 -10 -26 -7 -11 4 -14 2 -9 -5 5 -8 2 -10
-8 -6 -11 4 -16 0 -16 -15 0 -14 6 -21 19 -21 11 0 22 -6 25 -12 3 -9 8 -8 16
5 16 26 27 21 27 -13 0 -16 -4 -30 -9 -30 -4 0 -8 -6 -8 -14 0 -8 -7 -16 -15
-20 -8 -3 -15 -12 -15 -21 0 -17 16 -20 25 -5 4 6 11 8 16 4 5 -3 7 -10 4 -15
-4 -5 -2 -9 4 -9 5 0 13 5 16 10 4 6 15 8 25 5 14 -5 18 -1 17 14 0 11 -4 18
-8 16 -3 -3 -15 3 -25 11 -14 11 -15 17 -6 20 17 8 15 24 -3 24 -19 0 -19 16
0 24 8 3 19 -2 24 -12 11 -18 11 -18 15 15 2 15 -2 19 -12 15 -11 -4 -14 -1
-9 11 6 16 -8 23 -36 18 -5 -1 -5 4 -1 11 10 16 5 70 -7 83 -7 7 -8 3 -3 -9z"/>
<path d="M3224 3666 c-8 -22 -1 -59 14 -64 8 -2 10 2 6 13 -4 9 -3 15 2 14 5
-1 15 -1 22 0 21 2 3 21 -21 22 -12 0 -16 3 -9 6 6 2 12 9 12 14 0 14 -20 10
-26 -5z"/>
<path d="M2990 3628 c0 -15 -5 -30 -10 -33 -6 -4 -8 -21 -4 -41 5 -26 2 -35
-10 -40 -19 -7 -22 -26 -3 -22 6 1 23 -4 36 -11 24 -13 24 -13 17 20 -3 18
-12 37 -19 41 -9 6 -8 12 6 22 20 16 21 33 2 66 l-14 25 -1 -27z"/>
<path d="M3015 3640 c-3 -5 -1 -10 4 -10 6 0 11 5 11 10 0 6 -2 10 -4 10 -3 0
-8 -4 -11 -10z"/>
<path d="M1196 3601 c-11 -12 -14 -21 -7 -26 6 -3 11 -1 11 5 0 6 4 9 8 6 13
-8 35 11 28 23 -10 16 -20 14 -40 -8z"/>
<path d="M2148 3601 c-20 -24 -11 -65 15 -69 13 -2 17 4 17 28 0 16 -4 30 -10
30 -5 0 -7 7 -4 15 8 20 2 19 -18 -4z"/>
<path d="M2889 3580 c-1 -8 -1 -18 0 -22 0 -5 -6 -8 -14 -8 -8 0 -15 -7 -15
-15 0 -13 3 -13 20 -3 25 16 34 38 20 52 -7 7 -10 5 -11 -4z"/>
<path d="M2816 3544 c-5 -14 -4 -15 9 -4 17 14 19 20 6 20 -5 0 -12 -7 -15
-16z"/>
<path d="M3219 3556 c-5 -22 -3 -32 6 -38 27 -19 35 4 10 28 -8 9 -16 13 -16
10z"/>
<path d="M3535 3540 c3 -5 8 -10 11 -10 2 0 4 5 4 10 0 6 -5 10 -11 10 -5 0
-7 -4 -4 -10z"/>
<path d="M3595 3531 c-3 -12 -11 -21 -16 -21 -6 0 -7 4 -4 10 3 6 -1 7 -9 4
-19 -7 -19 -9 -5 -36 9 -16 8 -19 -2 -16 -18 6 -49 -22 -49 -44 0 -23 20 -34
31 -17 6 10 9 7 10 -11 0 -23 1 -23 9 -5 5 11 9 15 9 8 2 -20 -11 -43 -20 -37
-18 11 -31 -7 -17 -24 10 -12 10 -16 1 -19 -21 -7 -15 -32 7 -30 11 1 20 5 20
10 0 4 4 6 9 3 5 -3 8 2 7 11 0 9 5 18 13 21 10 3 12 -4 7 -29 -6 -34 4 -20
18 24 3 10 10 16 15 13 5 -3 11 1 15 9 6 18 -15 20 -31 4 -9 -9 -10 -7 -6 10
3 11 13 21 22 21 12 0 13 2 3 8 -8 5 -10 16 -6 27 6 15 4 17 -15 12 -22 -5
-27 0 -33 38 -2 14 3 20 19 20 31 0 37 11 20 35 l-15 22 -7 -21z m-2 -136 c-3
-9 -8 -14 -10 -11 -3 3 -2 9 2 15 9 16 15 13 8 -4z"/>
<path d="M2397 3523 c7 -18 33 -17 33 1 0 8 -8 14 -19 13 -11 0 -17 -6 -14
-14z"/>
<path d="M1880 3511 c0 -5 7 -11 14 -14 10 -4 13 -1 9 9 -6 15 -23 19 -23 5z"/>
<path d="M2160 3459 c0 -5 -4 -7 -10 -4 -18 11 -10 -21 10 -43 26 -27 25 -27
26 2 1 17 -3 23 -11 19 -10 -3 -12 2 -8 16 3 12 3 21 -1 21 -3 0 -6 -5 -6 -11z"/>
<path d="M3590 3454 c0 -8 5 -12 10 -9 6 4 8 11 5 16 -9 14 -15 11 -15 -7z"/>
<path d="M1325 3440 c3 -5 8 -10 11 -10 2 0 4 5 4 10 0 6 -5 10 -11 10 -5 0
-7 -4 -4 -10z"/>
<path d="M3385 3439 c-8 -12 6 -39 21 -39 8 0 14 5 14 10 0 6 -5 10 -11 10 -8
0 -8 4 0 13 8 10 7 14 -5 14 -8 0 -17 -4 -19 -8z"/>
<path d="M1391 3381 c0 -14 3 -20 6 -13 2 6 9 10 14 6 5 -3 9 3 9 14 0 10 -7
19 -15 19 -10 0 -15 -10 -14 -26z"/>
<path d="M2130 3395 c0 -8 4 -15 10 -15 5 0 7 7 4 15 -4 8 -8 15 -10 15 -2 0
-4 -7 -4 -15z"/>
<path d="M1938 3375 c-3 -14 -1 -25 3 -25 5 0 9 4 9 9 0 5 3 16 6 25 3 9 2 16
-4 16 -5 0 -12 -11 -14 -25z"/>
<path d="M3030 3375 c0 -9 5 -15 11 -13 6 2 11 8 11 13 0 5 -5 11 -11 13 -6 2
-11 -4 -11 -13z"/>
<path d="M3126 3365 c-3 -9 0 -15 9 -15 16 0 20 16 6 24 -5 3 -11 -1 -15 -9z"/>
<path d="M3360 3372 c-30 -4 -51 -21 -29 -24 31 -3 34 -4 48 -12 9 -6 12 -5 7
2 -3 6 3 12 14 14 19 3 20 4 3 13 -10 6 -29 9 -43 7z"/>
<path d="M3680 3366 c0 -9 7 -16 16 -16 17 0 14 22 -4 28 -7 2 -12 -3 -12 -12z"/>
<path d="M978 3353 c-21 -24 -38 -59 -38 -77 0 -43 90 -106 152 -106 27 0 78
40 78 61 0 14 -24 5 -38 -13 -26 -35 -127 -10 -153 38 -13 25 -8 44 27 92 14
19 14 22 2 22 -8 0 -22 -8 -30 -17z"/>
<path d="M3913 3362 c-16 -10 0 -35 26 -39 22 -3 25 4 15 31 -7 17 -22 20 -41
8z"/>
<path d="M1310 3331 c0 -36 9 -61 22 -61 5 0 6 5 3 10 -3 6 -1 10 4 10 15 0
14 43 -1 58 -19 19 -28 14 -28 -17z"/>
<path d="M3056 3351 c-3 -5 1 -11 9 -14 9 -4 12 -1 8 9 -6 16 -10 17 -17 5z"/>
<path d="M1191 3327 c17 -32 19 -33 19 -10 0 12 -7 23 -15 27 -13 5 -14 2 -4
-17z"/>
<path d="M1253 3339 c-5 -5 -8 -21 -5 -35 3 -19 7 -22 18 -13 11 9 14 8 14 -7
0 -12 3 -15 10 -8 7 7 5 21 -6 42 -18 36 -16 36 -31 21z"/>
<path d="M1013 3318 c-24 -31 -22 -35 11 -31 33 3 34 2 32 -29 -1 -29 2 -33
26 -36 18 -2 30 3 37 17 16 29 4 48 -43 71 -50 24 -51 24 -63 8z m97 -68 c0
-5 -4 -10 -10 -10 -5 0 -10 5 -10 10 0 6 5 10 10 10 6 0 10 -4 10 -10z"/>
<path d="M1940 3315 c14 -17 30 -20 30 -4 0 5 -4 7 -10 4 -5 -3 -10 -1 -10 4
0 6 -5 11 -11 11 -8 0 -8 -5 1 -15z"/>
<path d="M3665 3310 c4 -12 1 -28 -6 -36 -11 -13 -6 -34 6 -22 13 13 17 78 6
78 -8 0 -10 -8 -6 -20z"/>
<path d="M3430 3305 c0 -8 4 -15 10 -15 5 0 7 7 4 15 -4 8 -8 15 -10 15 -2 0
-4 -7 -4 -15z"/>
<path d="M3691 3294 c0 -11 3 -14 6 -6 3 7 2 16 -1 19 -3 4 -6 -2 -5 -13z"/>
<path d="M3625 3290 c-3 -5 -1 -10 4 -10 6 0 11 5 11 10 0 6 -2 10 -4 10 -3 0
-8 -4 -11 -10z"/>
<path d="M3467 3284 c7 -3 9 -13 6 -22 -5 -13 -3 -14 7 -5 14 13 5 33 -13 32
-9 0 -9 -2 0 -5z"/>
<path d="M3960 3270 c-9 -6 -10 -10 -3 -10 6 0 15 5 18 10 8 12 4 12 -15 0z"/>
<path d="M1189 3231 c-14 -32 -14 -39 -3 -37 23 3 31 19 25 48 -6 27 -6 27
-22 -11z"/>
<path d="M1895 3250 c4 -6 -1 -7 -11 -3 -14 5 -16 3 -11 -11 4 -10 7 -27 7
-39 0 -29 16 -10 25 31 4 21 3 32 -5 32 -6 0 -8 -4 -5 -10z"/>
<path d="M3840 3230 c-7 -13 -7 -26 -2 -36 8 -14 12 -12 25 14 14 29 13 42 -4
42 -5 0 -13 -9 -19 -20z"/>
<path d="M3075 3210 c-3 -6 1 -7 9 -4 18 7 21 14 7 14 -6 0 -13 -4 -16 -10z"/>
<path d="M1215 3200 c-8 -14 5 -58 20 -63 8 -4 13 3 13 19 0 13 -5 21 -10 18
-6 -4 -7 2 -3 15 6 21 -8 30 -20 11z"/>
<path d="M1715 3180 c-3 -5 -1 -10 4 -10 6 0 11 -7 11 -15 0 -8 6 -12 14 -9
17 7 9 44 -10 44 -7 0 -16 -4 -19 -10z"/>
<path d="M1760 3180 c0 -5 5 -10 11 -10 5 0 7 5 4 10 -3 6 -8 10 -11 10 -2 0
-4 -4 -4 -10z"/>
<path d="M1674 3155 c-2 -21 0 -22 12 -10 17 17 18 35 2 35 -7 0 -14 -11 -14
-25z"/>
<path d="M1190 3150 c-8 -5 -12 -12 -9 -15 4 -3 12 1 19 10 14 17 11 19 -10 5z"/>
<path d="M1837 3153 c-11 -10 -8 -41 3 -48 6 -4 10 5 8 24 -3 34 -2 34 -11 24z"/>
<path d="M1770 3136 c0 -15 18 -31 26 -23 7 7 -7 37 -17 37 -5 0 -9 -6 -9 -14z"/>
<path d="M1696 3105 c-3 -8 -1 -15 4 -15 13 0 22 18 11 24 -5 3 -11 -1 -15 -9z"/>
<path d="M4003 3081 c-57 -20 -103 -42 -103 -48 0 -18 8 -17 112 18 103 35
110 39 100 55 -5 7 -41 -1 -109 -25z"/>
<path d="M1846 3075 c-9 -26 -7 -32 5 -12 6 10 9 21 6 23 -2 3 -7 -2 -11 -11z"/>
<path d="M1574 3052 c3 -5 0 -12 -6 -15 -7 -2 -10 -7 -7 -11 3 -4 12 0 18 8 9
11 9 16 0 22 -7 4 -9 3 -5 -4z"/>
<path d="M1866 3037 c3 -10 9 -15 12 -12 3 3 0 11 -7 18 -10 9 -11 8 -5 -6z"/>
<path d="M3814 3034 c3 -9 6 -18 6 -20 0 -3 5 -2 10 1 16 10 12 35 -6 35 -11
0 -14 -5 -10 -16z"/>
<path d="M840 3023 c1 -10 21 -40 46 -68 l45 -50 -63 -23 c-74 -28 -87 -37
-70 -54 13 -13 203 -60 210 -53 15 14 -14 32 -69 44 -35 7 -68 15 -73 18 -5 3
15 16 44 27 30 12 55 27 57 33 2 6 -12 30 -33 53 -20 22 -35 42 -33 45 3 2 38
-4 79 -15 41 -11 76 -17 78 -15 16 15 -19 34 -100 53 -113 27 -118 27 -118 5z"/>
<path d="M1760 3004 c0 -21 28 -24 33 -4 3 14 0 18 -14 17 -11 -1 -19 -7 -19
-13z"/>
<path d="M3944 2949 c-4 -8 1 -9 16 -4 19 6 22 4 16 -11 -4 -10 -1 -21 6 -26
10 -5 8 -8 -5 -8 -10 0 -15 -5 -12 -10 9 -15 35 7 35 29 0 33 -41 54 -56 30z"/>
<path d="M1432 2918 c-14 -14 -16 -28 -3 -28 5 0 11 9 14 20 6 23 5 24 -11 8z"/>
<path d="M4143 2886 c6 -39 14 -35 -115 -57 -56 -9 -68 -14 -68 -30 0 -10 5
-16 13 -14 24 10 172 32 180 28 4 -2 7 -15 7 -29 0 -18 5 -24 21 -24 15 0 19
5 15 18 -4 15 -26 130 -26 139 0 2 -7 3 -16 3 -13 0 -15 -7 -11 -34z"/>
<path d="M1735 2900 c-3 -5 -1 -10 4 -10 6 0 11 5 11 10 0 6 -2 10 -4 10 -3 0
-8 -4 -11 -10z"/>
<path d="M1705 2880 c3 -5 8 -10 11 -10 2 0 4 5 4 10 0 6 -5 10 -11 10 -5 0
-7 -4 -4 -10z"/>
<path d="M3937 2864 c7 -3 9 -12 6 -21 -4 -11 -2 -14 5 -9 18 11 14 36 -5 35
-10 0 -13 -3 -6 -5z"/>
<path d="M3971 2854 c0 -11 3 -14 6 -6 3 7 2 16 -1 19 -3 4 -6 -2 -5 -13z"/>
<path d="M4175 2520 c-3 -5 -1 -10 4 -10 6 0 11 5 11 10 0 6 -2 10 -4 10 -3 0
-8 -4 -11 -10z"/>
<path d="M4051 2504 c0 -11 3 -14 6 -6 3 7 2 16 -1 19 -3 4 -6 -2 -5 -13z"/>
<path d="M3937 2462 c-3 -4 3 -13 14 -20 10 -7 19 -8 19 -3 0 13 -28 33 -33
23z"/>
<path d="M2758 2379 c6 -9 9 -18 6 -22 -3 -3 -1 -14 5 -24 6 -11 11 -13 11 -5
0 7 5 10 10 7 21 -13 9 13 -17 36 -15 13 -22 17 -15 8z"/>
<path d="M2770 2204 c0 -8 5 -12 10 -9 6 4 8 11 5 16 -9 14 -15 11 -15 -7z"/>
<path d="M4218 2176 c-22 -22 -32 -59 -24 -90 4 -17 1 -28 -9 -34 -9 -4 -25
-43 -35 -85 -11 -43 -31 -110 -44 -150 -36 -104 -5 -54 47 77 50 123 90 258
85 283 -3 15 -5 15 -20 -1z"/>
<path d="M3972 2134 c10 -10 20 -15 24 -12 3 4 -5 12 -18 18 -22 12 -22 12 -6
-6z"/>
<path d="M2510 2020 l-25 -8 25 -1 c14 0 32 4 40 9 13 9 13 10 0 9 -8 -1 -26
-5 -40 -9z"/>
<path d="M2583 2024 c9 -10 147 -21 147 -13 0 4 -7 10 -16 13 -21 8 -139 8
-131 0z"/>
<path d="M3993 2015 c0 -8 4 -12 9 -9 5 3 6 10 3 15 -9 13 -12 11 -12 -6z"/>
<path d="M3960 2005 c0 -8 2 -15 4 -15 2 0 6 7 10 15 3 8 1 15 -4 15 -6 0 -10
-7 -10 -15z"/>
<path d="M2325 1992 c-18 -13 -17 -35 0 -28 9 3 19 6 21 6 2 0 4 7 4 15 0 16
-9 19 -25 7z"/>
<path d="M2503 1993 c-16 -3 -23 -12 -23 -27 0 -14 -10 -28 -25 -36 -26 -14
-33 -30 -14 -30 5 0 7 -5 3 -11 -8 -13 258 -8 289 6 17 7 17 9 -3 30 -12 12
-22 32 -23 43 -1 16 -10 21 -45 26 -66 9 -84 8 -76 -5 3 -6 0 -15 -7 -20 -23
-14 -31 -10 -24 11 7 21 -1 23 -52 13z"/>
<path d="M2129 1953 c-1 -5 0 -18 1 -30 1 -13 -4 -23 -12 -23 -7 0 -19 -10
-27 -22 -14 -22 -14 -22 -21 -3 -4 11 -3 26 2 33 8 9 5 12 -10 12 -35 0 -41
-63 -12 -118 28 -52 95 -112 126 -112 12 0 27 -7 34 -15 18 -22 32 -18 25 6
-4 12 -7 50 -7 85 0 35 -1 64 -3 64 -3 0 -11 -12 -18 -26 -13 -26 -14 -26 -20
-5 -3 14 0 21 8 21 26 0 22 25 -8 58 -24 25 -27 32 -14 32 21 0 22 14 1 34
-16 17 -43 22 -45 9z"/>
<path d="M2350 1949 c-13 -7 -13 -9 0 -9 12 -1 12 -3 -2 -14 -16 -12 -16 -14
8 -24 33 -16 44 -15 44 3 0 8 -4 15 -10 15 -5 0 -10 6 -10 14 0 20 -13 27 -30
15z"/>
<path d="M4024 1953 c3 -6 2 -14 -4 -18 -5 -3 -10 -2 -10 2 0 5 -10 10 -22 10
-16 2 -19 0 -9 -6 8 -5 11 -16 6 -30 -4 -13 -2 -21 5 -21 6 0 8 5 4 12 -5 7
-2 9 8 6 21 -8 44 30 27 46 -9 8 -10 8 -5 -1z"/>
<path d="M2670 1869 c-25 -6 -89 -8 -142 -7 -61 2 -91 0 -80 -6 26 -14 26 -15
4 -35 -22 -18 -22 -18 41 -24 86 -9 198 7 210 28 5 10 18 26 28 36 18 18 18
19 2 18 -10 -1 -38 -5 -63 -10z"/>
<path d="M3950 1860 c0 -5 5 -10 10 -10 6 0 10 5 10 10 0 6 -4 10 -10 10 -5 0
-10 -4 -10 -10z"/>
<path d="M3855 1800 c-4 -6 -3 -16 3 -22 6 -6 12 -6 17 2 4 6 3 16 -3 22 -6 6
-12 6 -17 -2z"/>
<path d="M3805 1760 c3 -5 8 -10 11 -10 2 0 4 5 4 10 0 6 -5 10 -11 10 -5 0
-7 -4 -4 -10z"/>
<path d="M3880 1754 c0 -8 5 -12 10 -9 6 4 8 11 5 16 -9 14 -15 11 -15 -7z"/>
<path d="M3855 1740 c-3 -5 -1 -10 4 -10 6 0 11 5 11 10 0 6 -2 10 -4 10 -3 0
-8 -4 -11 -10z"/>
<path d="M3840 1710 c0 -5 5 -10 11 -10 5 0 7 5 4 10 -3 6 -8 10 -11 10 -2 0
-4 -4 -4 -10z"/>
<path d="M1180 1670 c0 -5 5 -10 11 -10 5 0 7 5 4 10 -3 6 -8 10 -11 10 -2 0
-4 -4 -4 -10z"/>
<path d="M2208 1585 c-21 -14 -43 -35 -49 -47 -9 -16 -13 -18 -19 -7 -12 18
-109 17 -120 -1 -5 -8 -6 -18 -4 -22 3 -5 -2 -11 -10 -14 -9 -3 -13 -10 -10
-15 3 -5 0 -9 -7 -9 -7 0 -10 -2 -7 -5 3 -3 25 1 49 9 l44 15 -24 -20 c-13
-10 -29 -19 -37 -19 -8 0 -14 -4 -14 -10 0 -5 -7 -10 -15 -10 -8 0 -15 -4 -15
-10 0 -5 -7 -10 -15 -10 -29 0 -14 -19 20 -26 37 -7 88 -2 119 11 16 7 17 6 7
-13 -14 -26 -14 -59 -1 -67 5 -3 35 17 65 46 30 29 57 50 59 48 2 -2 6 -32 10
-66 5 -48 4 -63 -6 -64 -7 -1 -36 -1 -64 -1 -43 0 -58 -5 -88 -30 -20 -16 -34
-34 -31 -38 3 -5 -12 -18 -33 -29 -41 -21 -82 -24 -94 -7 -3 5 -24 0 -50 -12
-31 -16 -35 -20 -15 -16 l28 7 -25 -28 c-14 -15 -22 -33 -19 -39 5 -7 9 -4 11
7 3 13 9 16 20 11 10 -4 39 -9 65 -12 37 -3 53 0 70 14 12 11 9 4 -8 -17 -17
-19 -31 -31 -33 -27 -5 11 -50 10 -90 -1 -21 -6 -32 -6 -32 0 0 6 -4 8 -9 4
-5 -3 -12 3 -14 12 -4 15 -5 15 -6 -2 -1 -15 -3 -17 -10 -6 -5 8 -16 11 -30 6
-18 -5 -21 -14 -21 -57 l0 -50 -18 23 c-13 15 -25 20 -36 16 -25 -10 -11 -25
49 -53 62 -28 67 -29 63 -11 -2 6 2 12 7 12 5 0 10 -6 12 -13 3 -21 9 -24 60
-28 107 -7 130 -6 168 9 37 15 41 14 53 -1 12 -16 14 -16 27 2 8 10 19 15 25
11 27 -16 94 -14 111 4 15 16 15 19 -2 40 -27 33 -24 80 8 126 28 41 20 38
-41 -20 -20 -18 -36 -39 -36 -45 0 -6 -4 -9 -9 -5 -5 3 -12 1 -15 -4 -3 -5
-15 -7 -26 -4 -11 3 -18 9 -15 13 3 5 -5 10 -17 12 -48 7 -45 100 6 156 52 57
112 59 169 4 22 -21 27 -22 27 -9 0 11 8 17 23 17 18 0 19 2 7 11 -13 9 -13
10 0 6 8 -2 16 -12 18 -23 5 -35 25 -64 43 -64 32 0 79 -49 79 -83 0 -41 -47
-110 -71 -104 -12 3 -16 0 -12 -9 8 -21 101 -22 116 0 6 8 12 5 20 -8 45 -70
68 -95 82 -90 13 5 13 8 0 21 -23 22 -46 70 -50 105 -2 16 -1 27 2 24 4 -3 14
8 24 24 20 31 51 39 79 19 13 -9 12 -10 -3 -5 -11 3 -16 2 -12 -4 3 -6 17 -7
31 -4 14 4 24 2 24 -5 0 -6 5 -11 11 -11 5 0 7 6 3 13 -6 10 -4 10 7 0 7 -7
17 -13 22 -13 4 0 5 6 1 13 -4 6 2 3 14 -7 12 -11 25 -37 29 -59 3 -21 12 -41
20 -44 11 -4 12 -8 3 -13 -7 -4 -9 -13 -5 -19 5 -9 10 -9 20 -1 14 12 128 -13
133 -30 2 -6 8 -10 13 -10 6 0 7 5 4 10 -4 6 7 10 27 10 l33 1 -22 18 c-12 10
-19 22 -15 25 3 4 -1 4 -10 1 -9 -4 -29 1 -45 10 -22 12 -23 14 -5 10 13 -4
22 -2 22 5 0 6 5 8 12 4 7 -4 8 -3 4 5 -4 6 -11 9 -16 6 -4 -3 -10 4 -13 14
-4 17 -1 18 27 9 56 -19 106 -22 106 -7 0 11 3 11 10 -1 8 -12 10 -12 10 -1 0
8 3 12 6 9 3 -4 1 -15 -4 -25 -11 -20 11 -63 25 -49 4 4 1 11 -7 16 -11 7 -11
11 -1 24 7 8 18 13 26 10 7 -3 16 -1 20 5 3 6 15 11 25 11 11 0 36 9 56 21 25
14 39 17 44 9 9 -15 40 -1 40 19 0 9 10 22 23 30 12 7 19 10 15 6 -4 -5 -3
-14 3 -22 15 -18 40 2 32 25 -6 15 -4 15 9 4 13 -10 22 -11 37 -2 34 17 24 25
-25 21 -36 -2 -49 1 -56 14 -9 15 -11 15 -28 0 -16 -14 -28 -15 -83 -7 -36 6
-92 8 -126 5 -47 -5 -61 -3 -61 8 0 10 -3 10 -12 1 -7 -7 -20 -12 -30 -12 -9
0 -22 -10 -29 -21 -6 -12 -7 -19 -2 -16 5 3 9 -2 9 -12 0 -19 -36 -24 -48 -7
-5 7 -8 3 -8 -8 0 -15 -5 -17 -27 -11 -16 4 -47 9 -71 12 -30 4 -42 9 -38 18
5 15 -17 38 -27 28 -4 -3 -7 -4 -7 0 0 3 36 27 80 53 81 49 94 62 83 90 -5 13
-15 15 -55 10 -26 -4 -56 -9 -66 -12 -9 -2 -4 2 12 9 l28 14 -31 22 c-17 12
-31 18 -31 13 0 -5 -9 -12 -20 -15 -20 -5 -20 -5 0 24 12 15 25 31 30 34 6 4
10 13 10 20 0 11 -6 12 -26 5 -14 -6 -31 -10 -37 -9 -7 0 3 6 22 13 45 16 50
33 11 41 -16 4 -28 11 -24 16 3 5 -15 9 -41 9 l-46 0 25 37 c18 25 22 40 15
49 -17 21 -85 25 -160 9 -87 -19 -148 -44 -200 -85 -40 -33 -72 -35 -118 -11
-27 15 -27 23 5 71 32 48 39 116 12 114 -10 -1 -15 2 -12 7 11 18 -22 9 -58
-16z m-138 -65 c-20 -13 -43 -13 -35 0 3 6 16 10 28 10 18 0 19 -2 7 -10z m66
-17 c-10 -11 -36 -12 -36 -2 0 5 10 9 22 9 12 0 18 -3 14 -7z m4 -123 c-6 -11
-13 -20 -16 -20 -2 0 0 9 6 20 6 11 13 20 16 20 2 0 0 -9 -6 -20z m534 1 c3
-5 -3 -11 -15 -14 -16 -4 -18 -3 -8 9 13 16 16 17 23 5z m-374 -31 c0 -5 -4
-10 -10 -10 -5 0 -10 5 -10 10 0 6 5 10 10 10 6 0 10 -4 10 -10z m120 -5 c0
-2 -18 -14 -40 -25 -22 -11 -40 -18 -40 -15 0 2 17 13 38 24 42 23 42 23 42
16z m220 -5 c0 -5 -5 -10 -11 -10 -5 0 -7 -4 -4 -10 3 -5 17 -10 30 -10 40 0
36 -14 -16 -53 -27 -20 -49 -32 -49 -26 0 10 -42 7 -86 -6 -14 -4 -33 2 -57
18 l-37 25 54 22 c30 12 63 20 72 18 10 -2 29 7 43 19 24 24 61 31 61 13z m92
-132 c-6 -6 -15 -8 -19 -4 -4 4 -1 11 7 16 19 12 27 3 12 -12z m88 -2 c0 -2
-7 -7 -16 -10 -8 -3 -12 -2 -9 4 6 10 25 14 25 6z m-46 -14 c3 -5 -15 -26 -40
-46 -33 -28 -52 -37 -70 -33 -16 3 -28 -1 -34 -12 -8 -14 -9 -13 -10 5 0 11 8
28 18 36 23 21 83 51 89 45 2 -3 -11 -13 -31 -22 -43 -21 -46 -28 -8 -19 44
11 84 37 69 46 -9 6 -9 8 0 8 6 0 14 -4 17 -8z m401 -184 c3 1 11 2 18 1 6 0
2 -4 -10 -9 -13 -5 -23 -14 -23 -20 0 -5 -4 -10 -10 -10 -5 0 -9 16 -8 36 1
34 2 35 15 18 8 -11 16 -18 18 -16z m-665 12 c0 -5 -4 -10 -10 -10 -5 0 -10 5
-10 10 0 6 5 10 10 10 6 0 10 -4 10 -10z"/>
<path d="M3392 1570 c0 -14 2 -19 5 -12 2 6 2 18 0 25 -3 6 -5 1 -5 -13z"/>
<path d="M2120 1572 c0 -12 19 -26 26 -19 2 2 -2 10 -11 17 -9 8 -15 8 -15 2z"/>
<path d="M1925 1560 c-3 -5 -1 -10 4 -10 6 0 11 5 11 10 0 6 -2 10 -4 10 -3 0
-8 -4 -11 -10z"/>
<path d="M1895 1542 c-12 -8 -17 -44 -5 -37 6 4 22 45 17 45 -1 0 -6 -4 -12
-8z"/>
<path d="M1350 1460 c-9 -6 -10 -10 -3 -10 6 0 15 5 18 10 8 12 4 12 -15 0z"/>
<path d="M2850 1342 c0 -4 19 -6 43 -4 70 5 76 10 15 11 -32 0 -58 -2 -58 -7z"/>
<path d="M3420 1310 c0 -22 3 -40 8 -40 4 0 6 18 4 40 -2 22 -6 40 -8 40 -2 0
-4 -18 -4 -40z"/>
<path d="M1345 1239 c-4 -6 -5 -12 -2 -15 2 -3 7 2 10 11 7 17 1 20 -8 4z"/>
<path d="M1735 1189 c-4 -6 -5 -12 -2 -15 2 -3 7 2 10 11 7 17 1 20 -8 4z"/>
<path d="M1488 1131 c2 -17 8 -34 13 -37 14 -8 10 30 -4 51 -13 16 -14 15 -9
-14z"/>
<path d="M2338 1153 c6 -2 18 -2 25 0 6 3 1 5 -13 5 -14 0 -19 -2 -12 -5z"/>
<path d="M2373 1115 c-9 -24 1 -27 15 -5 8 13 8 20 2 20 -6 0 -13 -7 -17 -15z"/>
<path d="M1550 1081 c0 -11 4 -21 9 -21 18 0 21 18 6 30 -13 10 -15 9 -15 -9z"/>
<path d="M1592 1078 c-21 -21 -13 -36 31 -60 39 -22 43 -22 59 -6 15 15 15 18
-5 32 -18 13 -18 14 -3 9 13 -4 17 -2 14 8 -3 8 -10 14 -15 14 -6 0 -15 3 -19
8 -11 11 -49 8 -62 -5z"/>
<path d="M1700 1072 c0 -5 7 -16 16 -23 14 -12 16 -11 13 5 -4 20 -29 35 -29
18z"/>
<path d="M2296 1017 c-22 -20 -26 -31 -18 -39 14 -14 37 3 57 42 18 36 -1 34
-39 -3z m22 -7 c-7 -10 -14 -17 -17 -15 -4 4 18 35 25 35 2 0 -1 -9 -8 -20z"/>
<path d="M3375 1020 c-3 -5 -1 -10 4 -10 6 0 11 5 11 10 0 6 -2 10 -4 10 -3 0
-8 -4 -11 -10z"/>
<path d="M2320 924 c0 -7 11 -14 25 -16 17 -4 25 -1 25 9 0 8 4 12 9 8 5 -3
12 -2 14 3 3 4 -12 7 -34 7 -22 0 -39 -5 -39 -11z"/>
<path d="M2050 910 c-17 -11 -8 -23 14 -18 9 2 12 8 8 15 -5 8 -13 9 -22 3z"/>
<path d="M2691 900 l-23 -20 25 0 c25 0 52 22 40 33 -10 10 -16 8 -42 -13z"/>
<path d="M2850 881 c0 -6 4 -11 10 -11 11 0 1 -32 -14 -42 -7 -5 -5 -8 5 -8
21 0 31 46 13 61 -10 8 -14 8 -14 0z"/>
<path d="M2170 861 c0 -6 4 -13 10 -16 6 -3 7 1 4 9 -7 18 -14 21 -14 7z"/>
<path d="M2268 863 c7 -3 16 -2 19 1 4 3 -2 6 -13 5 -11 0 -14 -3 -6 -6z"/>
<path d="M2505 860 c3 -5 11 -10 16 -10 6 0 7 5 4 10 -3 6 -11 10 -16 10 -6 0
-7 -4 -4 -10z"/>
<path d="M2710 860 c-12 -8 -10 -9 7 -7 12 2 26 6 29 10 11 11 -19 8 -36 -3z"/>
<path d="M2822 858 c-14 -14 -16 -38 -3 -38 10 0 26 39 19 46 -2 2 -10 -2 -16
-8z"/>
<path d="M2226 825 c-3 -9 2 -13 15 -12 22 2 25 13 5 20 -8 3 -17 0 -20 -8z"/>
<path d="M2300 817 c0 -15 4 -27 10 -27 5 0 9 9 7 20 -5 31 -17 36 -17 7z"/>
<path d="M2430 829 c0 -5 9 -9 20 -9 11 0 20 2 20 4 0 2 -9 6 -20 9 -11 3 -20
1 -20 -4z"/>
<path d="M2150 826 c0 -2 7 -7 16 -10 8 -3 12 -2 9 4 -6 10 -25 14 -25 6z"/>
<path d="M2330 799 c0 -5 5 -7 10 -4 6 3 10 8 10 11 0 2 -4 4 -10 4 -5 0 -10
-5 -10 -11z"/>
</g>
</svg>
